<svg width="292" height="157" viewBox="0 0 292 157" fill="none" xmlns="http://www.w3.org/2000/svg">
<path d="M290.516 109.617L290.586 109.992L290.664 110.367C290.696 110.536 290.747 110.715 290.828 110.898L291 111.273L291.164 111.648C291.428 112.243 291.339 112.857 291.008 113.359L290.758 113.734L290.586 113.984L290.711 114.211L290.914 114.586C291.123 114.978 291.233 115.416 291.203 115.875L291.18 116.25L291.148 116.625C291.139 116.775 291.151 116.929 291.188 117.086L291.359 117.836C291.48 118.36 291.383 118.866 291.133 119.305L290.914 119.68L290.703 120.055C290.694 120.07 290.683 120.079 290.68 120.086L290.766 120.453L290.859 120.828C290.96 121.258 290.937 121.691 290.805 122.109L290.57 122.859C290.55 122.923 290.546 122.973 290.562 123.031L290.781 123.781C290.848 124.012 290.918 124.245 291 124.477L291.266 125.227L291.359 125.617C291.412 126.009 291.343 126.399 291.164 126.758L290.773 127.539V127.547V127.555L290.867 127.93L290.969 128.305C291.084 128.745 291.064 129.195 290.922 129.625L290.805 130L290.68 130.375C290.658 130.441 290.657 130.49 290.672 130.547L290.773 130.922L290.867 131.297C290.967 131.67 290.996 132.054 290.945 132.438L290.852 133.188C290.825 133.391 290.811 133.595 290.812 133.797V134.172L290.82 134.547C290.823 134.796 290.826 135.047 290.828 135.297V136.047C290.831 136.388 290.791 136.73 290.703 137.062L290.602 137.438L290.508 137.812C290.495 137.859 290.492 137.905 290.516 137.969L290.648 138.344L290.789 138.719C290.876 138.958 290.967 139.198 291.062 139.438L291.359 140.188C291.593 140.777 291.491 141.372 291.172 141.859L290.93 142.234L290.68 142.609L290.625 142.719L290.664 143.094L290.695 143.469C290.717 143.708 290.745 143.948 290.773 144.188L290.812 144.562L290.859 144.938C290.888 145.181 290.92 145.428 290.953 145.672L291.008 146.047L291.055 146.422C291.099 146.741 291.109 147.061 291.086 147.383L291.062 147.766L291.031 148.141C291.002 148.54 290.891 148.924 290.695 149.273L290.508 149.609L290.32 149.938C290.218 150.121 290.133 150.309 290.062 150.492L289.797 151.18C289.693 151.448 289.568 151.71 289.43 151.969L289.07 152.641C288.843 153.068 288.492 153.386 288.055 153.578L287.703 153.734L287.344 153.891C287.129 153.985 286.933 154.088 286.75 154.188L286.43 154.359L286.117 154.523C285.988 154.594 285.852 154.691 285.711 154.82L285.422 155.094L285.125 155.359C284.675 155.772 284.098 155.909 283.516 155.758L283.125 155.656L282.781 155.562L282.422 155.805L282.062 156.055C281.667 156.323 281.198 156.481 280.688 156.445L280.312 156.422L279.938 156.391C279.754 156.378 279.567 156.39 279.383 156.414L278.633 156.508C278.269 156.554 277.905 156.539 277.547 156.461L277.172 156.375L276.797 156.297C276.583 156.25 276.368 156.217 276.156 156.195L275.406 156.117C275.302 156.107 275.193 156.117 275.07 156.156L274.695 156.281L274.32 156.398C273.936 156.523 273.535 156.567 273.133 156.516L272.383 156.422C272.006 156.374 271.645 156.253 271.305 156.078L270.555 155.688C270.418 155.617 270.306 155.597 270.219 155.594L269.469 155.562C269.457 155.562 269.405 155.564 269.297 155.633L268.922 155.867L268.547 156.109C268.096 156.397 267.555 156.524 266.992 156.367L266.617 156.258L266.242 156.156C266.072 156.108 265.903 156.081 265.742 156.078L265.367 156.07H264.992C264.651 156.065 264.315 156.009 263.984 155.914L263.609 155.805L263.234 155.703C263.046 155.649 262.861 155.609 262.68 155.594L261.93 155.531C261.833 155.523 261.724 155.541 261.602 155.586L261.227 155.719L260.852 155.859C260.572 155.962 260.291 156.053 260.008 156.125L259.258 156.312C258.887 156.407 258.504 156.433 258.125 156.383L257.75 156.328L257.375 156.281C256.986 156.23 256.618 156.097 256.273 155.906L255.898 155.703L255.531 155.492L255.203 155.609L254.828 155.734C254.578 155.819 254.329 155.909 254.078 155.992L253.328 156.242C252.782 156.424 252.237 156.339 251.766 156.07L251.016 155.648L250.992 155.633L250.641 155.734L250.266 155.828C249.907 155.924 249.541 155.962 249.172 155.93L248.422 155.867C248.185 155.847 247.948 155.832 247.711 155.82L247.336 155.797L246.961 155.781C246.896 155.778 246.811 155.788 246.695 155.844L246.32 156.023L245.945 156.211C245.573 156.391 245.169 156.487 244.75 156.484H244C243.669 156.482 243.34 156.432 243.016 156.352L242.641 156.266L242.266 156.172C242.018 156.11 241.771 156.045 241.523 155.984L240.773 155.797C240.763 155.794 240.752 155.797 240.75 155.797C240.743 155.798 240.724 155.806 240.695 155.82L239.945 156.18C239.593 156.351 239.219 156.464 238.828 156.492L238.453 156.516L238.078 156.547C237.622 156.579 237.189 156.47 236.797 156.266L236.047 155.875C235.972 155.836 235.945 155.842 235.938 155.844L235.188 155.984C234.824 156.051 234.458 156.054 234.094 155.992L233.719 155.93L233.344 155.859C233.098 155.817 232.848 155.782 232.602 155.742L231.852 155.617C231.743 155.6 231.632 155.603 231.516 155.633L231.141 155.734L230.766 155.828C230.562 155.882 230.351 155.952 230.141 156.039L229.391 156.352C228.765 156.61 228.147 156.472 227.664 156.117L227.289 155.836L226.914 155.562C226.905 155.556 226.897 155.551 226.891 155.547L226.578 155.609L226.203 155.688C225.901 155.747 225.594 155.779 225.289 155.789L224.914 155.805L224.539 155.812C224.229 155.822 223.918 155.804 223.609 155.758L222.859 155.648C222.669 155.62 222.478 155.603 222.289 155.609L221.539 155.641C221.479 155.643 221.385 155.66 221.258 155.734L220.508 156.172C220.06 156.431 219.543 156.53 219.008 156.391L218.633 156.297L218.258 156.195C217.983 156.123 217.703 156.04 217.43 155.945L217.055 155.812L216.68 155.688C216.64 155.674 216.617 155.674 216.578 155.688L215.828 155.938C215.408 156.08 214.967 156.108 214.531 156.008L213.781 155.836C213.555 155.784 213.327 155.738 213.102 155.703L212.727 155.648L212.352 155.586C212.165 155.557 211.981 155.548 211.797 155.555L211.047 155.586C210.848 155.593 210.647 155.611 210.445 155.648L209.695 155.789C209.47 155.831 209.242 155.886 209.016 155.945L208.641 156.047L208.266 156.141C207.812 156.261 207.35 156.238 206.914 156.078L206.539 155.938L206.211 155.82L205.867 156.016L205.492 156.219C205.112 156.427 204.689 156.547 204.242 156.539L203.492 156.523C203.211 156.519 202.929 156.5 202.648 156.469L201.898 156.391C201.729 156.372 201.56 156.368 201.391 156.391L201.016 156.445L200.641 156.492C200.273 156.541 199.901 156.525 199.539 156.445L199.164 156.359L198.789 156.281C198.632 156.247 198.479 156.232 198.328 156.242L197.953 156.266L197.578 156.297C197.304 156.316 197.025 156.322 196.75 156.32H196.375L196 156.312C195.589 156.31 195.195 156.214 194.828 156.039L194.453 155.859L194.164 155.719L193.875 155.891L193.5 156.102C193.094 156.328 192.633 156.444 192.148 156.391L191.773 156.344L191.398 156.305C191.108 156.273 190.819 156.224 190.531 156.156L190.156 156.07L189.781 155.977C189.667 155.95 189.556 155.947 189.445 155.969L189.07 156.047L188.695 156.117C188.362 156.181 188.025 156.196 187.688 156.172L187.312 156.148L186.938 156.117C186.673 156.098 186.405 156.078 186.141 156.047L185.391 155.953C185.096 155.918 184.799 155.863 184.508 155.789L183.758 155.602C183.722 155.593 183.686 155.593 183.625 155.617L182.875 155.914C182.509 156.059 182.122 156.13 181.727 156.117L181.352 156.109L180.977 156.094C180.74 156.086 180.503 156.085 180.266 156.086H179.516C179.272 156.087 179.025 156.095 178.781 156.102L178.031 156.117C177.71 156.125 177.388 156.1 177.07 156.039L176.32 155.898C176.088 155.854 175.857 155.813 175.625 155.781L175.25 155.734L174.875 155.68C174.708 155.657 174.541 155.661 174.375 155.68L173.625 155.758C173.316 155.793 172.998 155.802 172.688 155.781L171.938 155.734C171.65 155.715 171.364 155.677 171.078 155.625L170.328 155.484C170.217 155.464 170.107 155.465 169.992 155.492L169.617 155.586L169.242 155.672C169.046 155.718 168.844 155.784 168.641 155.867L168.266 156.023L167.891 156.172C167.539 156.316 167.168 156.403 166.789 156.414L166.414 156.422L166.039 156.438C165.537 156.452 165.082 156.28 164.695 156.016L163.945 155.5C163.901 155.47 163.876 155.461 163.875 155.461L163.531 155.516L163.156 155.578C162.921 155.614 162.681 155.65 162.445 155.695L162.07 155.766L161.695 155.844C161.276 155.924 160.857 155.889 160.453 155.758L160.078 155.641L159.703 155.516C159.621 155.489 159.553 155.492 159.484 155.508L158.734 155.68C158.408 155.755 158.075 155.788 157.742 155.781L156.992 155.766C156.736 155.761 156.475 155.752 156.219 155.742L155.469 155.711C155.335 155.706 155.195 155.729 155.047 155.773L154.672 155.883L154.297 156C154.015 156.085 153.73 156.157 153.445 156.211L152.695 156.352C152.373 156.413 152.045 156.434 151.719 156.422L151.344 156.414L150.969 156.398C150.633 156.386 150.302 156.33 149.977 156.234L149.227 156.016C149.174 156 149.129 155.996 149.07 156.016L148.32 156.266C147.989 156.375 147.65 156.438 147.305 156.453L146.93 156.469L146.555 156.492C146.114 156.511 145.689 156.405 145.305 156.211L144.93 156.016L144.555 155.828C144.411 155.756 144.29 155.727 144.188 155.719L143.812 155.688L143.438 155.664C143.279 155.652 143.116 155.655 142.953 155.688L142.578 155.766L142.203 155.836C141.988 155.878 141.772 155.934 141.555 156L140.805 156.234C140.39 156.361 139.956 156.372 139.531 156.273L138.781 156.102C138.708 156.085 138.637 156.085 138.555 156.109L137.805 156.344C137.43 156.458 137.038 156.495 136.648 156.453L135.898 156.375C135.603 156.343 135.308 156.292 135.016 156.219L134.641 156.125L134.266 156.023C134.008 155.959 133.75 155.891 133.492 155.82L132.742 155.617C132.693 155.604 132.648 155.603 132.586 155.625L132.211 155.758L131.836 155.883C131.483 156.006 131.115 156.075 130.742 156.07L130.367 156.062H129.992C129.844 156.061 129.691 156.08 129.531 156.125L129.156 156.227L128.781 156.336C128.47 156.424 128.154 156.483 127.836 156.508L127.461 156.539L127.086 156.562C126.572 156.603 126.101 156.444 125.703 156.18L125.328 155.938L124.953 155.688C124.907 155.657 124.884 155.649 124.883 155.648L124.531 155.703L124.156 155.758C123.879 155.798 123.598 155.827 123.32 155.844L122.57 155.891C122.322 155.905 122.068 155.914 121.82 155.93L121.445 155.961L121.07 155.984C120.929 155.994 120.778 156.024 120.617 156.086L120.242 156.227L119.867 156.375C119.506 156.513 119.129 156.585 118.742 156.578L117.992 156.562C117.698 156.557 117.402 156.536 117.109 156.492L116.734 156.43L116.359 156.375C115.975 156.317 115.607 156.184 115.266 155.992L114.891 155.781L114.547 155.586L114.242 155.711L113.867 155.852C113.563 155.968 113.251 156.053 112.938 156.109L112.188 156.25C111.837 156.313 111.478 156.32 111.125 156.273L110.75 156.227L110.375 156.172C110.12 156.138 109.864 156.101 109.609 156.062L108.859 155.953C108.572 155.91 108.285 155.85 108 155.773L107.25 155.57C107.11 155.532 106.973 155.52 106.844 155.531L106.094 155.594C105.944 155.607 105.785 155.646 105.617 155.711L105.242 155.859L104.867 156C104.46 156.157 104.031 156.207 103.594 156.133L102.844 156.008C102.593 155.965 102.337 155.919 102.086 155.875L101.336 155.75C101.216 155.729 101.1 155.731 100.977 155.758L100.602 155.836L100.227 155.922C99.96 155.98 99.689 156.026 99.4219 156.07L98.6719 156.195C98.2829 156.259 97.8893 156.246 97.5078 156.148L97.1328 156.047L96.7578 155.953C96.7256 155.945 96.6925 155.945 96.6328 155.969L96.2578 156.117L95.8828 156.273C95.277 156.518 94.6725 156.398 94.1875 156.062L93.8125 155.797L93.6562 155.688L93.4844 155.82L93.1094 156.109C92.6699 156.441 92.1048 156.622 91.4922 156.453L90.7422 156.25C90.6013 156.211 90.4653 156.2 90.3359 156.211L89.5859 156.273C89.2599 156.3 88.9336 156.283 88.6094 156.234L87.8594 156.125C87.5586 156.08 87.2568 156.005 86.9609 155.914L86.5859 155.805L86.2109 155.688C86.0157 155.628 85.8217 155.586 85.6328 155.562L84.8828 155.469C84.8574 155.466 84.8078 155.461 84.7188 155.508L84.3438 155.711L83.9688 155.906C83.4911 156.155 82.9504 156.21 82.4219 156.023L81.6719 155.758C81.5152 155.703 81.3655 155.676 81.2266 155.672L80.8516 155.664L80.4766 155.648C80.2213 155.641 79.9662 155.63 79.7109 155.617L79.3359 155.602L78.9609 155.578C78.8028 155.57 78.6406 155.589 78.4766 155.625L78.1016 155.703L77.7266 155.789C77.3974 155.862 77.0615 155.894 76.7266 155.883L76.3516 155.867L75.9766 155.859C75.8166 155.854 75.6512 155.867 75.4844 155.906L74.7344 156.078C74.4897 156.135 74.2448 156.197 74 156.258L73.25 156.445C72.7406 156.572 72.241 156.497 71.7969 156.266L71.4219 156.07L71.0469 155.867C70.8784 155.779 70.7239 155.735 70.5859 155.711L70.2109 155.641L69.8359 155.578C69.7669 155.566 69.6943 155.568 69.6016 155.602L69.2266 155.734L68.8516 155.875C68.4462 156.022 68.0157 156.067 67.5859 155.992L67.2109 155.922L66.8359 155.859C66.687 155.834 66.5379 155.832 66.3906 155.852L66.0156 155.906L65.6406 155.953C65.2409 156.007 64.8441 155.972 64.4609 155.852L63.7109 155.617C63.6574 155.6 63.6167 155.6 63.5625 155.617L62.8125 155.852C62.3837 155.988 61.9367 155.999 61.5 155.883L61.125 155.789L60.75 155.688C60.7045 155.676 60.6641 155.673 60.6016 155.695L60.2266 155.836L59.8516 155.969C59.4732 156.107 59.0757 156.167 58.6719 156.133L57.9219 156.07C57.8255 156.062 57.7228 156.073 57.6016 156.117L56.8516 156.383C56.3031 156.582 55.7469 156.514 55.2656 156.242L54.5156 155.82C54.4158 155.764 54.3637 155.764 54.3438 155.766L53.5938 155.828C53.4164 155.844 53.2323 155.881 53.0469 155.938L52.6719 156.055L52.2969 156.164C51.8615 156.296 51.4137 156.3 50.9766 156.172L50.2266 155.953C50.0474 155.901 49.8733 155.869 49.7031 155.859L49.3281 155.844L48.9531 155.82C48.8827 155.816 48.7957 155.829 48.6797 155.883L47.9297 156.227C47.5009 156.425 47.0317 156.49 46.5547 156.391L45.8047 156.234C45.672 156.207 45.5433 156.207 45.4141 156.227L45.0391 156.281L44.6641 156.344C44.1562 156.422 43.6751 156.298 43.2578 156.055L42.8828 155.836L42.6562 155.703L42.4219 155.859L42.0469 156.094C41.5396 156.419 40.9311 156.5 40.3438 156.234L39.9688 156.07L39.5938 155.898C39.4019 155.812 39.2183 155.744 39.0391 155.703L38.2891 155.531C38.1641 155.503 38.0422 155.504 37.9219 155.523L37.1719 155.648C36.8813 155.696 36.5891 155.724 36.2969 155.734L35.9219 155.742L35.5469 155.758C35.3861 155.763 35.2181 155.793 35.0469 155.844L34.2969 156.062C33.9165 156.176 33.5195 156.209 33.125 156.156L32.375 156.062C32.0579 156.02 31.7458 155.941 31.4375 155.836L31.0625 155.711L30.6875 155.578C30.5739 155.539 30.4751 155.536 30.3828 155.547L29.6328 155.641C29.4098 155.668 29.185 155.704 28.9609 155.75L28.2109 155.906C27.9282 155.965 27.6437 156.002 27.3594 156.031L26.6094 156.109C26.3943 156.131 26.1777 156.166 25.9609 156.211L25.2109 156.367C24.9204 156.427 24.6288 156.47 24.3359 156.492L23.9609 156.516L23.5859 156.547C23.1564 156.579 22.7384 156.5 22.3516 156.328L21.9766 156.156L21.6328 156L21.2891 156.156L20.9141 156.328C20.3287 156.587 19.7227 156.501 19.2188 156.18L18.8438 155.938L18.4688 155.703C18.448 155.69 18.4376 155.675 18.4297 155.672L18.0859 155.75L17.7109 155.828C17.3582 155.9 16.9976 155.917 16.6406 155.875L15.8906 155.781C15.7026 155.759 15.5153 155.761 15.3281 155.773L14.5781 155.82C14.4461 155.829 14.2976 155.864 14.1406 155.93L13.3906 156.242C13.0306 156.392 12.6485 156.476 12.2578 156.477H11.5078C11.2252 156.477 10.9403 156.465 10.6562 156.438L10.2812 156.398L9.89844 156.359C9.43792 156.314 9.02602 156.133 8.67188 155.859L8.32812 155.594L7.99219 155.336C7.8815 155.25 7.80781 155.226 7.76562 155.219L7.04688 155.109C6.78417 155.07 6.51611 155.015 6.24219 154.953L5.85938 154.875L5.47656 154.789C4.94456 154.669 4.51716 154.345 4.25 153.875L3.85938 153.188C3.78828 153.063 3.70697 152.971 3.61719 152.898L3.03906 152.43C2.80373 152.24 2.57662 152.026 2.36719 151.797L1.83594 151.219C1.52631 150.88 1.3341 150.471 1.26562 150.016L1.20312 149.633L1.14844 149.242C1.08912 148.845 1.11138 148.449 1.21875 148.062L1.32812 147.68L1.42969 147.297C1.46772 147.159 1.48091 147.037 1.46875 146.922L1.42969 146.547L1.39062 146.18C1.37202 146.004 1.33295 145.82 1.27344 145.633L1.15625 145.258L1.03125 144.883C0.94085 144.599 0.870205 144.31 0.8125 144.023L0.734375 143.648L0.664062 143.273C0.582572 142.868 0.594701 142.46 0.703125 142.062L0.90625 141.312C0.985727 141.021 1.08467 140.732 1.20312 140.445L1.51562 139.695C1.54891 139.615 1.54734 139.561 1.53906 139.516L1.39844 138.766C1.35359 138.53 1.30467 138.291 1.25 138.055L1.07812 137.305C0.981858 136.889 0.986948 136.464 1.10156 136.055L1.21094 135.68L1.3125 135.305C1.36925 135.102 1.41253 134.902 1.4375 134.703L1.48438 134.328L1.53125 133.969C1.52913 133.962 1.51542 133.936 1.48438 133.891L1.23438 133.516L0.976562 133.141C0.700975 132.739 0.534484 132.256 0.585938 131.727L0.617188 131.352L0.65625 130.977C0.685398 130.678 0.738876 130.381 0.8125 130.086L1 129.336C1.04183 129.169 1.05734 129.003 1.05469 128.844L1.04688 128.469V128.094C1.04085 127.743 1.08355 127.395 1.17969 127.055L1.28906 126.68L1.39062 126.305C1.43364 126.153 1.45117 126.007 1.44531 125.867L1.41406 125.117C1.41169 125.062 1.39798 124.973 1.32031 124.844L1.08594 124.469L0.859375 124.094C0.629848 123.714 0.490983 123.282 0.492188 122.82V122.07C0.49295 121.8 0.505396 121.528 0.523438 121.258L0.570312 120.508C0.594045 120.154 0.678074 119.804 0.804688 119.469L1.08594 118.719C1.12753 118.607 1.13388 118.514 1.125 118.43L1.04688 117.68C1.01085 117.338 1.02724 116.996 1.08594 116.656L1.21094 115.906C1.2382 115.749 1.24355 115.593 1.22656 115.438L1.1875 115.062L1.14062 114.688C1.12323 114.53 1.08357 114.361 1.01562 114.188L0.875 113.812L0.726562 113.438C0.574937 113.049 0.509717 112.639 0.554688 112.219L0.59375 111.844L0.640625 111.469C0.666544 111.227 0.68259 110.984 0.703125 110.742L0.742188 110.367L0.773438 109.992C0.787618 109.825 0.777723 109.654 0.75 109.484L0.625 108.734C0.570646 108.4 0.560693 108.063 0.59375 107.727L0.671875 106.977C0.695159 106.74 0.711766 106.502 0.726562 106.266L0.773438 105.516C0.788824 105.269 0.806485 105.02 0.820312 104.773L0.835938 104.398L0.859375 104.023C0.881126 103.635 0.984767 103.259 1.14844 102.906L1.32031 102.531L1.42188 102.312L1.21875 102.039L0.953125 101.664C0.620089 101.204 0.460087 100.619 0.664062 100.008L0.914062 99.2578C0.925571 99.2231 0.928225 99.2038 0.914062 99.1641L0.78125 98.7891L0.640625 98.4141C0.465757 97.9265 0.484545 97.4197 0.679688 96.9453L0.992188 96.1953C1.04322 96.0709 1.05124 95.9663 1.04688 95.875L1.01562 95.125C1.00858 94.9803 0.980319 94.8263 0.921875 94.6641L0.78125 94.2891L0.648438 93.9141C0.509178 93.5276 0.452721 93.1225 0.5 92.7109L0.546875 92.3359L0.585938 91.9609C0.611414 91.7392 0.633729 91.5182 0.640625 91.2969L0.648438 90.9219L0.664062 90.5469C0.676756 90.1361 0.786853 89.7392 0.96875 89.375L1.15625 89L1.33594 88.625C1.39211 88.512 1.40873 88.4344 1.40625 88.375L1.39062 88L1.36719 87.625C1.36288 87.5341 1.33672 87.4199 1.26562 87.2812L1.07812 86.9062L0.882812 86.5312C0.608541 85.9958 0.608847 85.4034 0.882812 84.8672L1.07031 84.4922L1.26562 84.1172C1.33183 83.9868 1.35735 83.8857 1.35938 83.8047L1.375 83.0547C1.38082 82.7947 1.39232 82.5334 1.40625 82.2734L1.42188 81.8984L1.44531 81.5234C1.45628 81.3189 1.45447 81.1111 1.4375 80.9062L1.375 80.1562C1.3598 79.9742 1.31938 79.7904 1.26562 79.6016L1.16406 79.2266L1.05469 78.8516C0.961338 78.524 0.906651 78.1888 0.898438 77.8516L0.882812 77.1016C0.878031 76.9009 0.862858 76.6949 0.828125 76.4922L0.757812 76.1172L0.695312 75.7422C0.607366 75.2253 0.726365 74.7345 0.976562 74.3125L1.20312 73.9375L1.40625 73.5938L1.28906 73.2969L1.15625 72.9219C1.00362 72.5055 0.964293 72.0649 1.05469 71.625L1.21094 70.875C1.25144 70.6783 1.27382 70.4825 1.28125 70.2891L1.3125 69.5391C1.31476 69.4796 1.30057 69.3968 1.24219 69.2812L1.04688 68.9062L0.859375 68.5312C0.629768 68.0799 0.556561 67.5727 0.695312 67.0625L0.898438 66.3125C0.95674 66.0981 1.00659 65.8836 1.03906 65.6719L1.14844 64.9219C1.1777 64.7305 1.19203 64.541 1.1875 64.3516L1.17188 63.6016C1.16716 63.4083 1.14722 63.2118 1.10938 63.0156L1.03125 62.6406L0.960938 62.2656C0.882487 61.8594 0.902975 61.4512 1.01562 61.0547L1.23438 60.3047C1.25343 60.238 1.24681 60.1777 1.22656 60.1094L1.00781 59.3594C0.908588 59.0244 0.854281 58.6825 0.851562 58.3359V57.9609L0.84375 57.5859C0.84244 57.3959 0.824899 57.2009 0.789062 57.0078L0.71875 56.6328L0.65625 56.2578C0.557404 55.7253 0.681511 55.2231 0.945312 54.7969L1.17969 54.4219L1.38281 54.0938L1.27344 53.8125L1.125 53.4375C0.939406 52.9601 0.937373 52.4577 1.11719 51.9766L1.39844 51.2266C1.45327 51.0798 1.47518 50.945 1.47656 50.8203V50.4453L1.48438 50.0703C1.48588 49.8884 1.46579 49.7012 1.42969 49.5156L1.35938 49.1406L1.28125 48.7656C1.24391 48.5741 1.19138 48.3786 1.11719 48.1797L0.835938 47.4297C0.645775 46.9215 0.675829 46.39 0.898438 45.9062L1.07031 45.5312L1.21875 45.2109L1.05469 44.8984L0.859375 44.5234C0.655009 44.1155 0.563309 43.6644 0.625 43.1953L0.671875 42.8203L0.726562 42.4453C0.750628 42.2626 0.755588 42.0799 0.742188 41.8984L0.710938 41.5234L0.6875 41.1484C0.669814 40.909 0.650027 40.6692 0.625 40.4297L0.578125 40.0547L0.539062 39.6797C0.485114 39.1628 0.636788 38.686 0.898438 38.2812L1.14062 37.9062L1.35156 37.5859L1.23438 37.3281L1.08594 36.9531C0.933746 36.581 0.85076 36.1858 0.867188 35.7812L0.898438 35.0312C0.909723 34.7558 0.935523 34.4781 0.96875 34.2031L1.01562 33.8281L1.05469 33.4531C1.0791 33.2503 1.09019 33.0456 1.08594 32.8438L1.07031 32.0938C1.06394 31.7828 1.09011 31.4726 1.14062 31.1641L1.26562 30.4141C1.27399 30.3625 1.27181 30.3002 1.23438 30.2109L1.07031 29.8359L0.914062 29.4609C0.694062 28.9346 0.727801 28.3834 0.976562 27.8828L1.15625 27.5078L1.29688 27.2266L1.13281 26.9453L0.921875 26.5703C0.675971 26.1382 0.565466 25.6429 0.671875 25.125L0.828125 24.375C0.845684 24.2898 0.840869 24.2051 0.8125 24.1094L0.59375 23.3594C0.485105 22.9927 0.441901 22.6154 0.476562 22.2344L0.507812 21.8594L0.546875 21.4844C0.579378 21.1281 0.667267 20.7803 0.804688 20.4453L0.960938 20.0703L1.10938 19.6953C1.15374 19.5872 1.164 19.5023 1.15625 19.4297L1.07812 18.6797C1.03994 18.3203 1.06163 17.9627 1.14062 17.6094L1.21875 17.2344L1.30469 16.8594C1.32763 16.757 1.32808 16.6576 1.30469 16.5547L1.13281 15.8047C1.07947 15.5744 1.01364 15.3406 0.945312 15.1094L0.726562 14.3594C0.632536 14.0412 0.575272 13.7176 0.554688 13.3906L0.507812 12.6406C0.478374 12.1679 0.60321 11.7216 0.828125 11.3281L1.03906 10.9531L1.25781 10.5781C1.35325 10.4109 1.40245 10.2733 1.42188 10.1641L1.54688 9.44531C1.57378 9.29396 1.58446 9.13666 1.57031 8.97656L1.53125 8.60156L1.5 8.23438C1.46076 7.79574 1.54687 7.36646 1.75781 6.97656L1.9375 6.64844L2.10938 6.32812C2.18073 6.19666 2.23923 6.04311 2.28125 5.86719L2.375 5.48438L2.46094 5.10156C2.54807 4.73728 2.69702 4.39442 2.89844 4.07812L3.10938 3.74219L3.32812 3.40625C3.57544 3.01861 3.91686 2.71994 4.33594 2.53125L4.70312 2.36719L5.0625 2.20312C5.40681 2.04826 5.77254 1.96073 6.14844 1.92969L6.54688 1.89062L6.9375 1.85938C7.02968 1.85188 7.10722 1.82982 7.17969 1.78125L7.50781 1.5625L7.82812 1.34375C8.18074 1.10585 8.60236 0.943742 9.07031 0.960938L9.39844 0.976562L9.71875 0.992188C9.85429 0.997305 10.0175 0.984818 10.2109 0.953125L10.9609 0.828125C11.3275 0.767856 11.6977 0.77364 12.0625 0.84375L12.8125 0.984375C13.049 1.02995 13.2872 1.07378 13.5234 1.10938L13.8984 1.16406L14.2734 1.22656C14.3877 1.24378 14.5025 1.23438 14.625 1.20312L15 1.10938L15.375 1.00781C15.6491 0.937477 15.9278 0.884663 16.2031 0.835938L16.5781 0.765625L16.9531 0.703125C17.4216 0.620601 17.8787 0.688309 18.2969 0.882812L18.6719 1.0625L19.0469 1.23438C19.121 1.26893 19.1604 1.27024 19.1875 1.26562L19.9375 1.125C20.1835 1.07901 20.4337 1.03308 20.6797 0.984375L21.0547 0.90625L21.4297 0.835938C21.9128 0.740273 22.3854 0.816107 22.8125 1.02344L23.5625 1.38281C23.5701 1.3865 23.5737 1.39678 23.5781 1.39844L24.3281 1.16406C24.6081 1.07664 24.8895 1.00415 25.1719 0.945312L25.9219 0.789062C26.1875 0.733716 26.4527 0.681903 26.7188 0.640625L27.0938 0.585938L27.4688 0.523438C27.7677 0.47713 28.0743 0.454178 28.375 0.453125H29.125C29.456 0.45225 29.7851 0.492368 30.1094 0.570312L30.4844 0.65625L30.8594 0.75C31.083 0.803707 31.3089 0.848208 31.5312 0.882812L31.9062 0.9375L32.2812 1C32.4465 1.02547 32.6099 1.0243 32.7734 1.00781L33.1484 0.96875L33.5234 0.9375C33.7599 0.913577 33.9977 0.884606 34.2344 0.851562L34.9844 0.742188C35.3974 0.684456 35.8117 0.732859 36.2031 0.867188L36.5781 0.992188L36.9531 1.125C36.9696 1.13031 36.9796 1.13266 36.9844 1.13281C36.9882 1.13276 37.006 1.12653 37.0312 1.11719L37.4062 0.984375L37.7812 0.84375C38.098 0.726934 38.4209 0.643002 38.75 0.601562L39.5 0.507812L39.8984 0.5C40.2849 0.531905 40.6392 0.67849 40.9453 0.890625L41.3203 1.14844L41.6641 1.39844L41.9609 1.3125L42.3359 1.19531C42.5749 1.12373 42.8154 1.04891 43.0547 0.96875L43.8047 0.71875C44.2198 0.579643 44.6548 0.554257 45.0859 0.648438L45.4609 0.726562L45.8359 0.8125C46.0795 0.866083 46.3268 0.920206 46.5703 0.96875L46.9453 1.03906L47.3203 1.11719C47.3752 1.12809 47.4336 1.12492 47.5156 1.09375L47.8906 0.953125L48.2656 0.804688C48.5992 0.676838 48.9448 0.597765 49.2969 0.570312L50.0469 0.507812C50.3293 0.485839 50.6157 0.478671 50.8984 0.484375L51.6484 0.5C51.9371 0.505951 52.2281 0.530311 52.5156 0.570312L52.8906 0.625L53.2656 0.671875C53.5509 0.711643 53.8342 0.772258 54.1172 0.84375L54.8672 1.03125C54.8853 1.03583 54.9104 1.04171 54.9688 1.01562L55.3438 0.851562L55.7188 0.679688L56.1484 0.546875C56.4383 0.496815 56.7272 0.524978 57 0.617188L57.3984 0.804688L57.7734 1.03906L58.0312 1.20312L58.2812 1.07031L58.6562 0.867188L59.0703 0.703125C59.3545 0.630017 59.6458 0.629652 59.9297 0.703125L60.3516 0.867188L61.1016 1.27344C61.256 1.35646 61.3871 1.39967 61.5 1.41406L62.25 1.50781C62.4509 1.5333 62.6519 1.54353 62.8516 1.53906L63.6016 1.52344C63.7756 1.51951 63.9523 1.49006 64.1328 1.44531L64.5078 1.35156L64.8828 1.26562C65.1891 1.18963 65.5013 1.13723 65.8125 1.11719L66.5625 1.07031C66.9093 1.04815 67.2535 1.079 67.5938 1.15625L68.3438 1.32812C68.3832 1.33711 68.4293 1.33341 68.5 1.30469L68.875 1.15625L69.25 1C69.6581 0.834603 70.0965 0.779432 70.5391 0.851562L70.9141 0.914062L71.2891 0.96875C71.4332 0.991973 71.5749 0.998884 71.7188 0.976562L72.0938 0.914062L72.4688 0.859375C72.7541 0.814681 73.0415 0.778697 73.3281 0.765625L74.0781 0.734375C74.4867 0.715809 74.8834 0.797558 75.2578 0.953125L75.6328 1.10156L76.0078 1.25781C76.1108 1.30058 76.1919 1.31271 76.2578 1.30469L77.0078 1.21094C77.3382 1.17101 77.6698 1.16876 78 1.21094L78.375 1.26562L78.75 1.3125C78.782 1.31661 78.8371 1.31185 78.9297 1.26562L79.6797 0.890625L80.1094 0.742188C80.4011 0.67937 80.6954 0.693749 80.9766 0.78125L81.3906 0.96875L81.7656 1.1875L81.9688 1.32031L82.1953 1.16406L82.5703 0.914062L82.9688 0.710938C83.2435 0.608415 83.5384 0.577269 83.8359 0.625L84.2891 0.765625L84.6641 0.929688L84.9688 1.07812L85.2891 0.90625L85.6641 0.710938C86.0803 0.495696 86.5482 0.401636 87.0312 0.476562L87.4062 0.53125L87.7812 0.59375C88.1113 0.645194 88.4341 0.739155 88.75 0.867188L89.125 1.01562L89.5 1.17188C89.5114 1.17647 89.5207 1.1791 89.5234 1.17969C89.5251 1.17939 89.5306 1.1749 89.5391 1.17188L90.2891 0.90625C90.6568 0.774521 91.0386 0.712878 91.4297 0.734375L91.8047 0.75L92.1797 0.773438C92.3518 0.782908 92.5278 0.773277 92.7031 0.742188L93.0781 0.671875L93.4531 0.609375C93.8773 0.534621 94.2999 0.571422 94.7031 0.710938L95.0781 0.84375L95.4531 0.96875C95.5131 0.989445 95.553 0.989741 95.6016 0.976562L95.9766 0.875L96.3516 0.765625C96.6977 0.668583 97.0565 0.627246 97.4141 0.640625L98.1641 0.671875C98.5114 0.685047 98.8541 0.742016 99.1875 0.851562L99.5625 0.976562L99.9297 1.10156C99.9331 1.10041 99.938 1.0971 99.9453 1.09375L100.32 0.914062L100.695 0.742188C101.093 0.554932 101.517 0.509334 101.922 0.609375L102.32 0.757812L103.07 1.13281C103.206 1.19971 103.316 1.22379 103.406 1.22656L103.781 1.23438L104.156 1.25C104.256 1.25301 104.369 1.23281 104.5 1.17969L104.875 1.02344L105.25 0.875C105.601 0.73298 105.967 0.651593 106.344 0.640625L106.719 0.632812L107.094 0.617188C107.453 0.607142 107.81 0.656315 108.156 0.757812L108.906 0.976562C109.122 1.03999 109.341 1.09467 109.555 1.13281L109.93 1.19531L110.305 1.26562C110.454 1.29196 110.603 1.29228 110.75 1.27344L111.5 1.17969C111.844 1.13589 112.189 1.14083 112.531 1.19531L112.906 1.25781L113.281 1.3125C113.357 1.32462 113.439 1.32471 113.539 1.28906L114.289 1.02344C114.791 0.844146 115.312 0.871361 115.789 1.08594L116.164 1.25L116.539 1.42188C116.604 1.45039 116.633 1.4505 116.656 1.44531L117.406 1.27344C117.678 1.21243 117.953 1.15874 118.227 1.11719L118.977 1.00781C119.398 0.944005 119.814 0.990537 120.211 1.13281L120.961 1.39844C121.125 1.45735 121.282 1.49115 121.43 1.5L121.805 1.52344L122.18 1.53906C122.18 1.53908 122.188 1.54359 122.203 1.53906C122.221 1.53365 122.258 1.52059 122.312 1.48438L122.688 1.22656L123.062 0.976562C123.4 0.747917 123.797 0.609935 124.219 0.625L124.641 0.6875L125.016 0.796875L125.391 0.898438C125.636 0.966985 125.888 1.03715 126.133 1.10156L126.508 1.19531L126.883 1.29688H126.891C126.894 1.29647 126.909 1.29498 126.938 1.28125L127.312 1.10156L127.688 0.914062C128.112 0.708409 128.582 0.634256 129.062 0.726562L129.812 0.867188C130.016 0.906501 130.221 0.935409 130.422 0.945312L130.797 0.960938L131.172 0.984375C131.525 1.00161 131.874 1.06729 132.211 1.1875L132.586 1.32812L132.852 1.42969L133.188 1.20312L133.562 0.945312L133.938 0.75C134.326 0.590209 134.759 0.556307 135.203 0.710938L135.578 0.84375L135.953 0.96875C136.093 1.01759 136.224 1.03537 136.344 1.03125L136.719 1.02344L137.094 1.00781C137.452 0.995782 137.81 1.04062 138.156 1.14062L138.906 1.35938C139.033 1.3956 139.152 1.40334 139.266 1.39062L139.641 1.35156L140.016 1.30469C140.362 1.2663 140.711 1.28224 141.055 1.34375L141.43 1.41406L141.805 1.47656C141.836 1.48186 141.883 1.48121 141.961 1.44531L142.711 1.10156C143.13 0.910001 143.588 0.837752 144.055 0.921875L144.805 1.0625C144.965 1.09108 145.124 1.09315 145.281 1.07812L145.656 1.04688L146.031 1.00781C146.281 0.98391 146.532 0.961232 146.781 0.9375L147.156 0.898438L147.531 0.867188C147.741 0.847197 147.952 0.810796 148.164 0.765625L148.914 0.609375C149.262 0.535227 149.616 0.513406 149.969 0.546875L150.344 0.578125L150.719 0.617188C150.893 0.633695 151.067 0.632508 151.242 0.609375L151.617 0.554688L151.992 0.507812C152.412 0.452022 152.825 0.504325 153.219 0.648438L153.594 0.78125L153.969 0.921875C154.103 0.971073 154.226 0.989048 154.336 0.984375L155.086 0.953125C155.253 0.945791 155.426 0.917654 155.602 0.867188L156.352 0.648438C156.77 0.528663 157.202 0.524303 157.625 0.632812L158.375 0.820312C158.617 0.882502 158.859 0.943649 159.102 1L159.852 1.17188C160.032 1.21378 160.208 1.24066 160.383 1.24219H161.133C161.209 1.24283 161.304 1.22641 161.43 1.16406L161.805 0.984375L162.18 0.796875C162.567 0.605341 162.984 0.546323 163.391 0.632812L163.789 0.765625L164.539 1.10938L164.547 1.11719L165.297 0.851562C165.645 0.730012 166.008 0.665391 166.375 0.664062H167.125C167.531 0.663148 167.922 0.755532 168.289 0.921875L168.664 1.09375L169.039 1.25781C169.104 1.28746 169.133 1.28603 169.156 1.28125L169.531 1.20312L169.906 1.11719C170.1 1.07457 170.299 1.01036 170.5 0.929688L171.25 0.632812C171.654 0.470771 172.086 0.410591 172.523 0.476562L172.898 0.53125L173.273 0.59375C173.52 0.631143 173.769 0.667996 174.016 0.703125L174.391 0.75L174.766 0.804688C174.974 0.834328 175.183 0.848641 175.391 0.851562L176.141 0.867188C176.416 0.871106 176.694 0.881289 176.969 0.90625L177.344 0.945312L177.719 0.976562C178.046 1.00653 178.371 1.07626 178.688 1.17969L179.062 1.30469L179.375 1.40625L179.734 1.1875L180.109 0.960938L180.508 0.773438C180.782 0.683638 181.07 0.665998 181.359 0.71875L181.789 0.851562L182.539 1.19531C182.628 1.23584 182.685 1.24017 182.727 1.23438L183.477 1.125C183.674 1.09584 183.876 1.04684 184.078 0.984375L184.828 0.75L185.211 0.671875C185.589 0.631513 185.966 0.708054 186.312 0.875L187.062 1.23438C187.199 1.29964 187.311 1.32515 187.406 1.32812L187.781 1.33594L188.156 1.35156C188.377 1.35847 188.6 1.35626 188.82 1.34375L189.57 1.29688C189.684 1.29014 189.814 1.26243 189.961 1.19531L190.711 0.851562L191.102 0.71875C191.365 0.660317 191.635 0.660866 191.898 0.71875L192.289 0.851562L192.664 1.01562L193.039 1.1875L193.055 1.19531L193.43 1.0625L193.805 0.9375C194.339 0.755642 194.878 0.822563 195.352 1.07812L196.102 1.48438C196.192 1.53272 196.241 1.53351 196.266 1.53125L196.641 1.49219L197.016 1.44531C197.226 1.42276 197.444 1.39219 197.656 1.34375L198.406 1.17188C198.827 1.07669 199.253 1.09564 199.664 1.21875L200.414 1.4375C200.579 1.48682 200.737 1.51254 200.891 1.51562L201.641 1.53125C201.756 1.53337 201.884 1.5132 202.023 1.46094L202.773 1.17969C203.225 1.0104 203.706 0.989859 204.172 1.13281L204.922 1.36719C204.935 1.37085 204.942 1.36724 204.945 1.36719C204.948 1.36702 204.964 1.37066 204.992 1.35938L205.742 1.04688C206.033 0.926707 206.328 0.826138 206.625 0.75L207.375 0.5625C207.841 0.443167 208.312 0.478994 208.75 0.65625L209.125 0.8125L209.5 0.960938C209.627 1.01225 209.733 1.02775 209.828 1.02344L210.578 0.992188C210.89 0.977719 211.205 0.987722 211.516 1.03125L212.266 1.14062C212.415 1.1614 212.568 1.15726 212.719 1.13281L213.094 1.07031L213.469 1.01562C213.753 0.969569 214.042 0.93639 214.328 0.921875L214.703 0.898438L215.078 0.882812C215.497 0.862207 215.903 0.950245 216.281 1.11719L216.656 1.28125L216.93 1.40625L217.242 1.21875L217.617 1C218.019 0.76342 218.478 0.632775 218.969 0.679688L219.719 0.757812C220.064 0.791352 220.406 0.874162 220.734 1L221.484 1.28125C221.588 1.32095 221.668 1.33011 221.742 1.32031L222.117 1.27344L222.492 1.21875C222.681 1.19355 222.875 1.15564 223.07 1.09375L223.445 0.96875L223.82 0.851562C224.268 0.709546 224.733 0.708494 225.18 0.851562L225.555 0.976562L225.93 1.09375C225.975 1.10836 226.007 1.10929 226.055 1.09375L226.805 0.84375C227.112 0.740894 227.427 0.666425 227.742 0.625L228.492 0.53125C228.824 0.487938 229.16 0.484039 229.492 0.523438L229.867 0.5625L230.242 0.609375C230.594 0.65111 230.935 0.749696 231.266 0.890625L231.641 1.04688L231.953 1.1875L232.289 1.01562L232.664 0.820312C233.041 0.625156 233.452 0.55871 233.859 0.632812L234.266 0.75L234.641 0.914062L235.016 1.07031C235.196 1.14706 235.368 1.20061 235.531 1.22656L235.906 1.28125L236.281 1.34375C236.315 1.34915 236.367 1.35288 236.453 1.3125L237.203 0.953125C237.626 0.755418 238.089 0.682662 238.562 0.773438L238.938 0.84375L239.312 0.921875C239.382 0.935304 239.456 0.929993 239.547 0.898438L239.922 0.765625L240.297 0.640625L240.688 0.546875C241.081 0.495558 241.47 0.567929 241.828 0.75L242.203 0.9375L242.516 1.10938L242.836 0.960938L243.211 0.789062L243.602 0.65625C243.865 0.59793 244.135 0.598167 244.398 0.65625L244.789 0.789062L245.539 1.13281C245.728 1.2182 245.911 1.27489 246.086 1.3125L246.461 1.39062L246.836 1.47656C247.006 1.51299 247.172 1.52199 247.336 1.51562L247.711 1.50781L248.086 1.49219C248.331 1.48268 248.576 1.46634 248.82 1.45312L249.195 1.4375L249.57 1.41406C249.712 1.40641 249.863 1.37965 250.023 1.32031L250.773 1.03906C251.166 0.892968 251.58 0.837225 252 0.890625L252.75 0.984375C252.974 1.01301 253.199 1.03643 253.422 1.04688L254.172 1.07812C254.398 1.08872 254.626 1.0916 254.852 1.08594L255.602 1.07031C255.725 1.06703 255.86 1.04305 256.008 0.984375L256.758 0.6875L257.156 0.570312C257.561 0.504693 257.965 0.580834 258.336 0.773438L259.086 1.16406C259.191 1.21826 259.256 1.22194 259.297 1.21875L260.047 1.15625C260.207 1.14371 260.374 1.11386 260.547 1.05469L260.922 0.921875L261.297 0.796875C261.787 0.628355 262.295 0.651625 262.766 0.851562L263.141 1.00781L263.516 1.17188C263.595 1.20558 263.647 1.20323 263.688 1.19531L264.062 1.125L264.438 1.04688C264.684 0.998862 264.933 0.95582 265.18 0.90625L265.93 0.75C266.419 0.652242 266.893 0.738789 267.32 0.953125L267.695 1.14062L268.016 1.30469L268.344 1.16406L268.719 0.992188C269.202 0.777195 269.724 0.763061 270.227 0.953125L270.977 1.23438C270.986 1.23796 270.996 1.24116 271 1.24219H271.016C271.019 1.24153 271.029 1.23812 271.039 1.23438L271.789 0.96875C272.249 0.803564 272.731 0.789561 273.195 0.945312L273.57 1.07031L273.945 1.20312C273.989 1.21733 274.019 1.2172 274.062 1.20312L274.812 0.953125C275.144 0.84415 275.483 0.781807 275.828 0.765625L276.203 0.75L276.578 0.726562C276.827 0.714876 277.079 0.707593 277.328 0.695312L277.703 0.671875L278.078 0.65625C278.51 0.635383 278.923 0.73103 279.305 0.914062L280.055 1.27344C280.182 1.3347 280.286 1.35226 280.367 1.35156H280.742L281.117 1.34375C281.29 1.34222 281.468 1.32405 281.648 1.28125L282.023 1.19531L282.398 1.10156C282.79 1.00867 283.191 1.00182 283.586 1.08594L283.953 1.16406L284.328 1.24219C284.566 1.29289 284.811 1.34291 285.062 1.39062L285.453 1.46875L285.844 1.53906C286.21 1.60875 286.558 1.73885 286.883 1.92188L287.234 2.11719L287.578 2.3125C287.895 2.49098 288.185 2.71411 288.438 2.97656L288.711 3.26562L288.992 3.55469C289.211 3.78208 289.412 4.02379 289.594 4.28125L289.82 4.60938L290.055 4.9375C290.262 5.23151 290.422 5.55066 290.539 5.89062L290.672 6.26562L290.797 6.64844C290.95 7.09666 290.961 7.55797 290.844 8.00781L290.734 8.42188L290.633 8.82812C290.576 9.04536 290.547 9.23645 290.539 9.39844L290.516 9.75781L290.5 10.1172C290.496 10.1925 290.509 10.2929 290.562 10.4219L290.875 11.1719C291.032 11.5484 291.108 11.9479 291.086 12.3594L291.07 12.7344L291.047 13.1094C291.04 13.2369 291.058 13.373 291.102 13.5156L291.211 13.8906L291.328 14.2656C291.437 14.6207 291.486 14.9894 291.469 15.3594L291.453 15.7344L291.43 16.1094C291.409 16.5288 291.284 16.9257 291.086 17.2891L290.883 17.6641L290.734 17.9219L290.891 18.1953L291.094 18.5703C291.349 19.0281 291.436 19.5527 291.281 20.0859L291.172 20.4609L291.07 20.8359C291.007 21.0557 290.948 21.2745 290.906 21.4922L290.766 22.2422V22.2578C290.767 22.2645 290.775 22.2872 290.797 22.3281L291.203 23.0781C291.455 23.5409 291.537 24.0706 291.375 24.6016L291.141 25.3516C291.115 25.4376 291.116 25.51 291.133 25.5859L291.305 26.3359C291.401 26.7601 291.378 27.1882 291.25 27.6016L291.016 28.3516C290.939 28.5979 290.87 28.8475 290.797 29.0938L290.68 29.4688L290.57 29.8438C290.546 29.9246 290.544 29.9961 290.562 30.0703L290.75 30.8203C290.834 31.1591 290.874 31.5045 290.859 31.8516L290.828 32.6016C290.816 32.8993 290.782 33.1967 290.727 33.4922L290.586 34.2422C290.548 34.4484 290.518 34.6553 290.508 34.8594L290.477 35.6094C290.468 35.7812 290.476 35.9576 290.508 36.1328L290.648 36.8828C290.707 37.2037 290.725 37.5273 290.711 37.8516L290.68 38.6016C290.67 38.8148 290.674 39.0289 290.688 39.2422L290.734 39.9922C290.747 40.193 290.77 40.398 290.812 40.6016L290.898 40.9766L290.977 41.3516C291.035 41.629 291.076 41.9088 291.109 42.1875L291.203 42.9375C291.246 43.2887 291.236 43.6438 291.172 43.9922L291.031 44.7422C291.002 44.9005 290.993 45.0559 291.008 45.2109L291.047 45.5859L291.078 45.9609C291.096 46.15 291.133 46.3442 291.188 46.5391L291.297 46.9141L291.398 47.2891C291.496 47.6389 291.541 47.9978 291.523 48.3594L291.5 48.7344L291.484 49.1094C291.473 49.3308 291.47 49.5521 291.477 49.7734L291.492 50.1484L291.5 50.5234C291.508 50.7662 291.518 51.015 291.531 51.2578L291.555 51.6328L291.57 52.0078C291.586 52.3117 291.581 52.6188 291.547 52.9219L291.5 53.2969L291.461 53.6719C291.437 53.8909 291.419 54.1096 291.414 54.3281L291.398 55.0781C291.39 55.4232 291.336 55.7684 291.234 56.1016L291.117 56.4766L291.008 56.8516C290.94 57.074 290.883 57.2951 290.836 57.5156L290.758 57.8906L290.672 58.25C290.672 58.25 290.682 58.2678 290.703 58.3047L290.914 58.6797L291.133 59.0547C291.354 59.4355 291.489 59.8639 291.484 60.3203V60.6953L291.477 61.0703C291.473 61.4294 291.411 61.7821 291.297 62.125L291.047 62.875C290.991 63.0427 290.96 63.2057 290.953 63.3594L290.938 63.7344L290.914 64.1094C290.898 64.4361 290.847 64.7596 290.758 65.0781L290.648 65.4531L290.547 65.8281C290.518 65.9298 290.513 66.0246 290.531 66.1172L290.609 66.4922L290.68 66.8672C290.731 67.1275 290.778 67.388 290.82 67.6484L290.945 68.3984C291.009 68.792 290.987 69.1864 290.883 69.5703L290.68 70.3203C290.648 70.4361 290.639 70.5423 290.656 70.6484L290.781 71.3984C290.837 71.7409 290.84 72.0857 290.797 72.4297L290.703 73.1797C290.672 73.4261 290.645 73.6755 290.617 73.9219L290.57 74.2969L290.531 74.6719C290.517 74.7946 290.527 74.9217 290.562 75.0547L290.656 75.4297L290.758 75.8047C290.818 76.0331 290.885 76.2627 290.961 76.4922L291.211 77.2422C291.358 77.685 291.368 78.1451 291.234 78.5938L291.125 78.9688L291.008 79.3438C290.966 79.4835 290.952 79.617 290.961 79.7422L290.992 80.1172L291.016 80.4922C291.043 80.9027 290.973 81.3018 290.82 81.6797L290.664 82.0547L290.516 82.4062L290.688 82.7734L290.859 83.1484C291.035 83.5377 291.115 83.9567 291.078 84.3906L291.016 85.1406C291.009 85.2206 291.016 85.3156 291.062 85.4297L291.375 86.1797L291.484 86.5703C291.557 86.9674 291.5 87.3685 291.32 87.7422L290.961 88.4922C290.878 88.6636 290.829 88.8224 290.805 88.9688L290.68 89.7188C290.672 89.767 290.673 89.8254 290.711 89.9141L290.875 90.2891L291.031 90.6641C291.19 91.0332 291.274 91.4237 291.266 91.8281L291.25 92.5781C291.24 93.0135 291.114 93.4254 290.906 93.7969L290.695 94.1719L290.594 94.3438L290.766 94.5781L291.055 94.9531C291.237 95.193 291.38 95.4987 291.406 95.8594C291.433 96.2274 291.331 96.564 291.164 96.8359L290.93 97.2109L290.703 97.5859C290.673 97.6356 290.66 97.6655 290.656 97.6797C290.653 97.6921 290.656 97.6996 290.656 97.7031L290.734 98.4531C290.749 98.5851 290.786 98.7307 290.859 98.8906L291.203 99.6406C291.47 100.22 291.404 100.824 291.086 101.336L290.859 101.711L290.625 102.086C290.604 102.119 290.589 102.139 290.586 102.148L290.711 102.898C290.733 103.031 290.781 103.179 290.867 103.344L291.258 104.094C291.52 104.595 291.561 105.158 291.336 105.695L291.18 106.07L291.016 106.445C290.993 106.5 291.001 106.523 291.008 106.547L291.211 107.297L291.273 107.703C291.293 108.099 291.182 108.475 290.984 108.812L290.547 109.562L290.516 109.617ZM289.352 19.5547V19.5469L288.93 18.7969C288.624 18.2488 288.62 17.6311 288.922 17.0781L289.125 16.7031L289.336 16.3281C289.409 16.1934 289.434 16.0866 289.438 16.0078L289.469 15.2578C289.475 15.1287 289.458 14.9954 289.414 14.8516L289.305 14.4766L289.188 14.1016C289.078 13.7442 289.026 13.3725 289.047 13L289.094 12.25C289.098 12.1638 289.081 12.0655 289.031 11.9453L288.719 11.1953C288.564 10.8252 288.48 10.4301 288.5 10.0234L288.523 9.66406L288.539 9.29688C288.555 8.97693 288.61 8.64866 288.695 8.32031L288.805 7.91406L288.906 7.5C288.93 7.40748 288.924 7.34914 288.906 7.29688L288.781 6.91406L288.648 6.53906C288.593 6.37843 288.521 6.22589 288.422 6.08594L288.188 5.76562L287.961 5.4375C287.837 5.26119 287.697 5.09332 287.547 4.9375L287.273 4.64844L286.992 4.35938C286.876 4.23861 286.747 4.13667 286.602 4.05469L285.898 3.66406C285.761 3.58732 285.62 3.53646 285.469 3.50781L285.078 3.42969L284.688 3.35938C284.422 3.30898 284.16 3.25711 283.906 3.20312L283.172 3.04688C283.074 3.02595 282.97 3.02065 282.859 3.04688L282.484 3.14062L282.109 3.22656C281.788 3.30281 281.46 3.34095 281.133 3.34375L280.758 3.35156H280.383C279.965 3.35501 279.567 3.25614 279.195 3.07812L278.445 2.71875C278.329 2.66282 278.238 2.65299 278.172 2.65625L277.422 2.6875C277.172 2.69982 276.922 2.71484 276.672 2.72656L275.922 2.75781C275.767 2.76508 275.606 2.79629 275.438 2.85156L274.688 3.10156C274.232 3.25113 273.759 3.24584 273.305 3.09375L272.555 2.84375C272.522 2.83294 272.5 2.82971 272.461 2.84375L272.086 2.98438L271.711 3.11719C271.236 3.28741 270.743 3.27937 270.273 3.10156L269.523 2.82031L269.156 2.99219L268.781 3.15625C268.252 3.39206 267.69 3.37219 267.18 3.11719L266.43 2.74219C266.359 2.70651 266.33 2.70903 266.32 2.71094L265.57 2.86719C265.319 2.91766 265.064 2.96674 264.812 3.01562L264.062 3.15625C263.604 3.24483 263.154 3.18653 262.734 3.00781L261.984 2.69531L261.961 2.67969L261.953 2.6875L261.578 2.8125L261.203 2.94531C260.878 3.05712 260.542 3.12978 260.203 3.15625L259.828 3.17969L259.453 3.21094C258.995 3.24679 258.559 3.14252 258.164 2.9375L257.789 2.74219L257.445 2.5625L257.117 2.69531L256.742 2.84375C256.392 2.98234 256.024 3.0609 255.648 3.07031L254.898 3.08594C254.625 3.09275 254.352 3.09093 254.078 3.07812L253.328 3.04688C253.052 3.03393 252.776 3.00404 252.5 2.96875L251.75 2.875C251.671 2.86482 251.583 2.87453 251.477 2.91406L251.102 3.05469L250.727 3.1875C250.388 3.31353 250.037 3.3947 249.68 3.41406L249.305 3.42969L248.93 3.45312C248.675 3.4669 248.419 3.47447 248.164 3.48438L247.414 3.51562C247.079 3.52865 246.744 3.50073 246.414 3.42969L246.039 3.35156L245.664 3.26562C245.34 3.19578 245.021 3.09348 244.711 2.95312L244.336 2.78125L244 2.625L243.664 2.78125L243.289 2.95312C242.756 3.19588 242.186 3.1756 241.672 2.91406L241.297 2.72656L240.922 2.53125L240.578 2.65625L240.203 2.78906C239.795 2.93134 239.367 2.96524 238.938 2.88281L238.188 2.74219C238.163 2.73751 238.123 2.73007 238.047 2.76562L237.672 2.94531L237.297 3.11719C236.884 3.31089 236.434 3.39392 235.969 3.32031L235.219 3.19531C234.883 3.14199 234.554 3.0499 234.234 2.91406L233.859 2.75L233.539 2.61719L233.211 2.78906L232.836 2.98438C232.332 3.24492 231.769 3.27486 231.234 3.04688L230.859 2.89062L230.484 2.72656C230.315 2.65434 230.156 2.61137 230.008 2.59375L229.633 2.55469L229.258 2.50781C229.091 2.48805 228.925 2.48634 228.758 2.50781L228.383 2.5625L228.008 2.60938C227.825 2.63322 227.636 2.67837 227.445 2.74219L226.695 2.99219C226.245 3.14308 225.774 3.14532 225.32 3L224.945 2.88281L224.57 2.75781C224.519 2.74119 224.48 2.74206 224.43 2.75781L224.055 2.875L223.68 3C223.377 3.09619 223.068 3.16178 222.758 3.20312L222.383 3.25L222.008 3.30469C221.582 3.36145 221.162 3.30803 220.766 3.15625L220.391 3.00781L220.016 2.86719C219.845 2.80203 219.685 2.76525 219.531 2.75L218.781 2.67188C218.773 2.67108 218.73 2.66942 218.633 2.72656L217.883 3.16406C217.375 3.46262 216.784 3.52279 216.219 3.27344L215.469 2.94531C215.349 2.89264 215.252 2.87876 215.172 2.88281L214.797 2.89844L214.422 2.92188C214.21 2.93276 213.994 2.94985 213.781 2.98438L213.031 3.10938C212.684 3.1653 212.333 3.16597 211.984 3.11719L211.609 3.07031L211.234 3.01562C211.046 2.98932 210.859 2.98355 210.672 2.99219L209.922 3.02344C209.517 3.04221 209.123 2.96381 208.75 2.8125L208 2.51562C207.939 2.49105 207.908 2.49183 207.875 2.5L207.125 2.6875C206.923 2.73925 206.716 2.81234 206.508 2.89844L206.133 3.05469L205.758 3.20312C205.301 3.39168 204.808 3.42861 204.328 3.28125L203.578 3.04688C203.546 3.03725 203.523 3.0374 203.477 3.05469L202.727 3.33594C202.368 3.47039 201.993 3.53793 201.609 3.53125L200.859 3.51562C200.515 3.50929 200.169 3.45917 199.836 3.35938L199.461 3.24219L199.086 3.13281C198.999 3.10704 198.922 3.10721 198.844 3.125L198.469 3.21094L198.094 3.28906C197.808 3.35403 197.522 3.40653 197.234 3.4375L196.484 3.51562C196.008 3.56667 195.552 3.46 195.148 3.24219L194.773 3.03906L194.406 2.83594L194.07 2.96094L193.695 3.08594C193.196 3.2559 192.682 3.21994 192.211 3.00781L191.836 2.84375L191.5 2.6875L191.164 2.84375L190.789 3.01562C190.437 3.17582 190.065 3.27505 189.68 3.29688L189.305 3.32031L188.93 3.33594C188.651 3.35167 188.372 3.36028 188.094 3.35156L187.719 3.33594L187.344 3.32812C186.939 3.31547 186.55 3.20575 186.188 3.03125L185.438 2.67188L185.414 2.66406L185.047 2.78125L184.672 2.89062C184.375 2.98223 184.075 3.05687 183.773 3.10156L183.023 3.21094C182.566 3.27854 182.12 3.20239 181.711 3.01562L181.336 2.84375L181.062 2.71094L180.766 2.89844L180.391 3.125C179.923 3.4074 179.371 3.51049 178.812 3.32812L178.062 3.07812C177.881 3.0192 177.702 2.98428 177.531 2.96875L177.156 2.9375L176.781 2.89844C176.558 2.87822 176.333 2.87034 176.109 2.86719L175.359 2.85156C175.067 2.84738 174.775 2.8304 174.484 2.78906L173.734 2.67969C173.482 2.64379 173.229 2.60852 172.977 2.57031L172.602 2.50781L172.227 2.45312C172.165 2.44384 172.094 2.44723 172 2.48438L171.625 2.64062L171.25 2.78906C170.953 2.90832 170.649 3.00283 170.344 3.07031L169.969 3.15625L169.594 3.23438C169.117 3.33945 168.643 3.28155 168.211 3.08594L167.461 2.74219C167.329 2.6826 167.218 2.66373 167.125 2.66406H166.375C166.244 2.66494 166.103 2.68968 165.953 2.74219L165.203 3.00781C164.701 3.1831 164.185 3.14617 163.711 2.92969L163.336 2.75781L163.016 2.60938L162.695 2.77344L162.32 2.96094C161.946 3.14602 161.541 3.24568 161.117 3.24219H160.367C160.042 3.23943 159.718 3.19927 159.398 3.125L159.023 3.03906L158.648 2.94531C158.391 2.88551 158.132 2.82375 157.875 2.75781L157.125 2.57031C157.049 2.55093 156.979 2.54732 156.898 2.57031L156.148 2.78906C155.826 2.88129 155.495 2.93127 155.164 2.94531L154.414 2.97656C154.025 2.99261 153.646 2.93046 153.281 2.79688L152.906 2.66406L152.531 2.52344C152.425 2.48442 152.338 2.48157 152.258 2.49219L151.508 2.58594C151.183 2.62908 150.857 2.64019 150.531 2.60938L150.156 2.57031L149.781 2.53906C149.635 2.52518 149.487 2.53041 149.336 2.5625L148.586 2.71875C148.299 2.77997 148.008 2.8241 147.719 2.85156L146.969 2.92969C146.719 2.95339 146.468 2.97613 146.219 3L145.844 3.03125L145.469 3.07031C145.127 3.10285 144.784 3.08441 144.445 3.02344L144.07 2.96094L143.695 2.89062C143.664 2.88526 143.617 2.88591 143.539 2.92188L142.789 3.26562C142.37 3.45732 141.912 3.52897 141.445 3.44531L141.07 3.38281L140.695 3.3125C140.54 3.285 140.387 3.27989 140.234 3.29688L139.859 3.33594L139.484 3.38281C139.1 3.42541 138.715 3.38844 138.344 3.28125L137.594 3.0625C137.442 3.01913 137.296 3.003 137.156 3.00781L136.781 3.02344L136.406 3.03125C136.027 3.04394 135.655 2.98427 135.297 2.85938L134.922 2.72656L134.641 2.63281L134.312 2.85938L133.938 3.10938C133.465 3.42806 132.882 3.55549 132.289 3.34375L131.914 3.21094L131.539 3.07031C131.377 3.0123 131.223 2.98382 131.078 2.97656L130.328 2.94531C130.031 2.93081 129.732 2.89275 129.438 2.83594L129.062 2.76562L128.688 2.6875C128.669 2.68389 128.636 2.68318 128.562 2.71875L127.812 3.07812C127.365 3.29465 126.866 3.35766 126.367 3.22656L125.992 3.13281L125.617 3.03125C125.365 2.96485 125.112 2.89871 124.859 2.82812L124.484 2.71875L124.18 2.63281L123.812 2.88281L123.438 3.14062C123.045 3.40624 122.58 3.5678 122.07 3.53906L121.695 3.51562L121.32 3.5C120.969 3.47972 120.623 3.40105 120.289 3.28125L119.539 3.01562C119.437 2.97908 119.351 2.97257 119.273 2.98438L118.898 3.03906L118.523 3.10156C118.297 3.136 118.071 3.17572 117.844 3.22656L117.469 3.3125L117.094 3.39062C116.618 3.49734 116.143 3.43672 115.711 3.24219L115.336 3.07812L114.961 2.90625L114.211 3.17188C113.811 3.31458 113.392 3.35645 112.969 3.28906L112.594 3.23438L112.219 3.17188C112.062 3.14695 111.905 3.14422 111.75 3.16406L111 3.25781C110.649 3.30256 110.294 3.29668 109.945 3.23438L109.57 3.16406L109.195 3.10156C108.91 3.05046 108.626 2.98135 108.344 2.89844L107.594 2.67969C107.441 2.63491 107.296 2.61361 107.156 2.61719L106.781 2.625L106.406 2.64062C106.285 2.64403 106.148 2.66663 106 2.72656L105.625 2.88281L105.25 3.03125C104.881 3.18064 104.493 3.2545 104.094 3.24219L103.344 3.22656C102.934 3.21389 102.543 3.10237 102.18 2.92188L101.805 2.73438L101.484 2.57031L101.18 2.72656L100.805 2.89844C100.336 3.11928 99.8186 3.16638 99.3125 3L98.9375 2.875L98.5625 2.75781C98.3968 2.70333 98.2377 2.66974 98.0859 2.66406L97.7109 2.65625L97.3359 2.64062C97.1949 2.63551 97.0508 2.65289 96.8984 2.69531L96.5234 2.79688L96.1484 2.90625C95.6984 3.03243 95.2355 3.01113 94.7969 2.85938L94.4219 2.73438L94.0469 2.60156C93.9514 2.56871 93.8716 2.56487 93.7969 2.57812L93.4219 2.64062L93.0469 2.71094C92.7232 2.76812 92.3972 2.79139 92.0703 2.77344L91.3203 2.72656C91.2115 2.72058 91.0931 2.74173 90.9609 2.78906L90.2109 3.05469C89.7262 3.22802 89.2231 3.21498 88.75 3.02344L88.375 2.86719L88 2.71875C87.8168 2.64449 87.6376 2.59651 87.4688 2.57031L87.0938 2.50781L86.7188 2.45312C86.7007 2.45056 86.6652 2.45121 86.5859 2.49219L86.2109 2.67969L85.8359 2.875C85.322 3.14079 84.748 3.16536 84.2109 2.92188L83.8359 2.75L83.5859 2.64062L83.3047 2.83594L82.9297 3.08594C82.6813 3.25062 82.3754 3.36369 82.0312 3.375C81.6854 3.38605 81.371 3.28914 81.1094 3.13281L80.7344 2.90625L80.4453 2.73438L80.1953 2.86719L79.8203 3.05469C79.4136 3.25784 78.967 3.35628 78.5 3.29688L78.125 3.24219L77.75 3.19531C77.5823 3.17378 77.4097 3.17493 77.2422 3.19531L76.4922 3.28906C76.0598 3.34101 75.6378 3.2735 75.2422 3.10938L74.4922 2.79688C74.3673 2.74499 74.263 2.73044 74.1719 2.73438L73.4219 2.76562C73.2092 2.77529 72.9951 2.80247 72.7812 2.83594L72.4062 2.89062L72.0312 2.95312C71.6766 3.00868 71.3153 3.00308 70.9609 2.94531L70.2109 2.82031C70.155 2.81176 70.0895 2.81521 70 2.85156L69.625 3.00781L69.25 3.15625C68.8217 3.33021 68.3658 3.3775 67.9062 3.27344L67.1562 3.10156C66.9979 3.06548 66.8392 3.05273 66.6875 3.0625L66.3125 3.08594L65.9375 3.11719C65.7498 3.12939 65.5597 3.15543 65.3672 3.20312L64.6172 3.39062C64.2981 3.46979 63.974 3.51603 63.6484 3.52344L62.8984 3.53906C62.5988 3.54583 62.2985 3.53001 62 3.49219L61.25 3.39844C60.8634 3.34938 60.4931 3.21708 60.1484 3.03125L59.7734 2.82812L59.4922 2.67969L59.2188 2.82812L58.8438 3.03125C58.2676 3.33845 57.6406 3.30024 57.1016 2.96875L56.7266 2.74219L56.4219 2.54688L56.1562 2.67188L55.7812 2.84375C55.3408 3.04013 54.8634 3.08983 54.3828 2.96875L53.6328 2.78125C53.4175 2.72676 53.1974 2.68588 52.9844 2.65625L52.6094 2.60156L52.2344 2.55469C52.0238 2.52549 51.811 2.50423 51.6016 2.5L50.8516 2.48438C50.6355 2.48012 50.4195 2.49099 50.2031 2.50781L49.8281 2.53125L49.4531 2.5625C49.3059 2.57395 49.1499 2.60862 48.9844 2.67188L48.6094 2.82031L48.2344 2.96094C47.8175 3.12069 47.3742 3.16664 46.9297 3.07812L46.5547 3L46.1797 2.92969C45.9244 2.87881 45.6692 2.82173 45.4141 2.76562L45.0391 2.67969L44.6641 2.60156C44.5969 2.58678 44.5282 2.5897 44.4453 2.61719L43.6953 2.86719C43.4356 2.95421 43.1741 3.03928 42.9141 3.11719L42.1641 3.33594C41.5725 3.51313 41.0082 3.36907 40.5547 3.05469L39.8047 2.53906C39.7551 2.50471 39.7292 2.49295 39.7266 2.49219L39.375 2.53906L39 2.58594C38.8299 2.60735 38.6513 2.65132 38.4688 2.71875L37.7188 3C37.2557 3.17013 36.7655 3.17643 36.2969 3.01562L35.9219 2.88281L35.5469 2.75781C35.4404 2.72168 35.3512 2.71488 35.2656 2.72656L34.8906 2.77344L34.5156 2.82812C34.2535 2.86476 33.9889 2.89533 33.7266 2.92188L32.9766 3C32.6412 3.03393 32.3023 3.02848 31.9688 2.97656L31.5938 2.91406L31.2188 2.85938C30.9422 2.81627 30.6659 2.76148 30.3906 2.69531L30.0156 2.60156L29.6406 2.51562C29.4661 2.47367 29.2929 2.45254 29.125 2.45312H28.375C28.1779 2.45399 27.9801 2.46936 27.7812 2.5L27.4062 2.5625L27.0312 2.61719C26.7985 2.65325 26.5614 2.69358 26.3281 2.74219L25.5781 2.89844C25.3608 2.94374 25.1416 3.0017 24.9219 3.07031L24.1719 3.30469C23.6634 3.46325 23.1509 3.41241 22.6875 3.1875L22.3125 3L21.9375 2.82031C21.8664 2.78601 21.8372 2.79355 21.8203 2.79688L21.4453 2.86719L21.0703 2.94531C20.8178 2.99531 20.565 3.04653 20.3125 3.09375L19.9375 3.15625L19.5625 3.22656C19.0898 3.31493 18.6254 3.24371 18.2031 3.04688L17.4531 2.70312C17.3724 2.66548 17.327 2.66654 17.2969 2.67188L16.9219 2.73438L16.5469 2.80469C16.3239 2.84422 16.0992 2.88784 15.875 2.94531L15.5 3.04688L15.125 3.14062C14.7483 3.23728 14.3616 3.26101 13.9766 3.20312L13.6016 3.14062L13.2266 3.08594C12.9636 3.04632 12.7002 3.00372 12.4375 2.95312L12.0625 2.88281L11.6875 2.80469C11.5533 2.77883 11.4215 2.78306 11.2891 2.80469L10.9141 2.86719L10.5391 2.92188C10.2345 2.97195 9.93276 2.99563 9.64062 2.98438L9.32031 2.97656L9.00781 2.96094C8.99696 2.96551 8.97497 2.97999 8.94531 3L8.625 3.21875L8.29688 3.4375C7.93718 3.67976 7.53306 3.81646 7.10156 3.85156L6.71094 3.89062L6.3125 3.92188C6.16563 3.93406 6.02163 3.96881 5.88281 4.03125L5.52344 4.19531L5.15625 4.35938C5.0927 4.3884 5.05276 4.42606 5.01562 4.48438L4.79688 4.82031L4.58594 5.15625C4.50295 5.28697 4.44099 5.42487 4.40625 5.57031L4.32031 5.95312L4.22656 6.33594C4.1469 6.66884 4.02781 6.98515 3.86719 7.28125L3.69531 7.60938L3.51562 7.92969C3.49579 7.96685 3.48737 8.00078 3.49219 8.05469L3.52344 8.42188L3.5625 8.79688C3.59222 9.12966 3.5736 9.46117 3.51562 9.78906L3.45312 10.1562L3.39062 10.5156C3.32454 10.8869 3.18186 11.2384 2.99219 11.5703L2.78125 11.9453L2.5625 12.3203C2.50158 12.4269 2.4983 12.4884 2.5 12.5156L2.54688 13.2656C2.55766 13.4364 2.59556 13.6096 2.64844 13.7891L2.86719 14.5391C2.94662 14.8079 3.01566 15.0819 3.07812 15.3516L3.25 16.1016C3.34153 16.4972 3.34668 16.9005 3.25781 17.2969L3.17188 17.6719L3.09375 18.0469C3.06149 18.1915 3.0478 18.3302 3.0625 18.4688L3.14062 19.2188C3.18622 19.6456 3.12124 20.0617 2.96094 20.4531L2.80469 20.8281L2.65625 21.2031C2.58902 21.367 2.55229 21.5214 2.53906 21.6641L2.5 22.0391L2.46875 22.4141C2.45799 22.5324 2.46887 22.6566 2.50781 22.7891L2.61719 23.1641L2.73438 23.5391C2.85417 23.9433 2.86671 24.3665 2.78125 24.7812L2.71094 25.1562L2.63281 25.5312C2.63581 25.5403 2.64341 25.5553 2.65625 25.5781L2.86719 25.9531L3.08594 26.3281C3.38693 26.857 3.41067 27.4646 3.13281 28.0234L2.95312 28.3984L2.78125 28.7344L2.92188 29.0625L3.07812 29.4375C3.24989 29.8472 3.30714 30.2869 3.23438 30.7344L3.10938 31.4844C3.0782 31.6748 3.06635 31.8666 3.07031 32.0547L3.08594 32.8047C3.0922 33.1019 3.08264 33.3991 3.04688 33.6953L2.95312 34.4453C2.92608 34.6691 2.90751 34.8939 2.89844 35.1172L2.86719 35.8672C2.8635 35.9617 2.87847 36.0691 2.92969 36.1953L3.24219 36.9453C3.48234 37.5325 3.38048 38.1253 3.0625 38.6172L2.57812 39.3672C2.5457 39.4174 2.53458 39.4489 2.53125 39.4609V39.4688L2.60938 40.2188C2.63648 40.4781 2.66051 40.7405 2.67969 41L2.71094 41.375L2.73438 41.75C2.7578 42.0673 2.75234 42.387 2.71094 42.7031L2.65625 43.0781L2.60938 43.4531C2.60546 43.4829 2.60364 43.535 2.64844 43.625L3.02344 44.375C3.28269 44.8913 3.2991 45.4608 3.05469 45.9922L2.88281 46.3672L2.71094 46.7344L2.85156 47.1016L2.99219 47.4766C3.10362 47.7747 3.19047 48.0772 3.25 48.3828L3.39062 49.1328C3.45179 49.4472 3.48701 49.7678 3.48438 50.0859L3.47656 50.4609V50.8359C3.47323 51.2088 3.39633 51.5713 3.26562 51.9219L2.98438 52.6719C2.98062 52.6819 2.98469 52.6936 2.98438 52.6953C2.98512 52.6984 2.98907 52.7028 2.99219 52.7109L3.13281 53.0859L3.28125 53.4609C3.50452 54.0346 3.41108 54.6141 3.10938 55.1016L2.88281 55.4766L2.64844 55.8516C2.63047 55.8806 2.61997 55.8981 2.61719 55.9062L2.6875 56.2656L2.75781 56.6406C2.81479 56.9476 2.84161 57.2604 2.84375 57.5703L2.85156 57.9453V58.3203C2.85275 58.471 2.87412 58.6269 2.92188 58.7891L3.03906 59.1641L3.14844 59.5391C3.27635 59.9707 3.28002 60.4183 3.15625 60.8516L2.9375 61.6016C2.90916 61.7017 2.90493 61.7922 2.92188 61.8828L3 62.2578L3.07031 62.6328C3.12892 62.9363 3.1644 63.2482 3.17188 63.5547L3.1875 64.3047C3.19482 64.613 3.17198 64.9202 3.125 65.2266L3.01562 65.9766C2.97148 66.2644 2.90562 66.5508 2.82812 66.8359L2.625 67.5859C2.62684 67.5918 2.63229 67.6086 2.64062 67.625L2.83594 68L3.02344 68.375C3.21762 68.7575 3.32138 69.1779 3.30469 69.6172L3.29688 69.9922L3.28125 70.3672C3.26951 70.6711 3.22582 70.9727 3.16406 71.2734L3.09375 71.6484L3.01562 72.0234C3.00332 72.0832 3.00073 72.1511 3.03125 72.2344L3.17188 72.6094L3.30469 72.9844C3.50935 73.5441 3.42583 74.1049 3.14062 74.5859L2.70312 75.3359C2.67724 75.3796 2.66498 75.4019 2.66406 75.4062L2.73438 75.7812L2.79688 76.1562C2.8478 76.4535 2.87568 76.7554 2.88281 77.0547L2.89844 77.8047C2.90252 77.9658 2.9279 78.1339 2.97656 78.3047L3.19531 79.0547C3.28308 79.3635 3.34099 79.6766 3.36719 79.9922L3.42969 80.7422C3.45415 81.0374 3.45335 81.3373 3.4375 81.6328L3.42188 82.0078L3.39844 82.3828C3.38569 82.6212 3.38033 82.8632 3.375 83.1016L3.35938 83.8516C3.34947 84.2684 3.23416 84.6647 3.04688 85.0312L2.85156 85.4062L2.70312 85.6953L2.85938 85.9922L3.04688 86.3672C3.23221 86.7286 3.34781 87.1221 3.36719 87.5312L3.38281 87.9062L3.40625 88.2812C3.42646 88.72 3.32436 89.1397 3.13281 89.5234L2.75781 90.2734C2.68997 90.4093 2.66682 90.5201 2.66406 90.6094L2.64844 90.9844L2.64062 91.3594C2.63201 91.6356 2.60974 91.9117 2.57812 92.1875L2.53125 92.5625L2.49219 92.9375C2.48209 93.0254 2.4908 93.1216 2.53125 93.2344L2.79688 93.9844C2.91819 94.3208 2.99019 94.6696 3.00781 95.0234L3.03125 95.3984L3.04688 95.7734C3.06672 96.181 2.98966 96.5788 2.83594 96.9531L2.6875 97.3281L2.53125 97.7031L2.52344 97.7266V97.7344L2.66406 98.1094L2.79688 98.4844C2.96158 98.9432 2.96707 99.4265 2.8125 99.8906L2.6875 100.266L2.59375 100.531L2.84375 100.867L3.10938 101.242C3.47139 101.743 3.59364 102.377 3.30469 103L2.96094 103.75C2.89374 103.896 2.86559 104.022 2.85938 104.133L2.8125 104.883C2.7984 105.134 2.78132 105.389 2.76562 105.641L2.71875 106.391C2.70247 106.651 2.68184 106.911 2.65625 107.172L2.625 107.547L2.58594 107.922C2.56993 108.085 2.5746 108.249 2.60156 108.414L2.72656 109.164C2.78036 109.493 2.7934 109.825 2.76562 110.156L2.70312 110.906C2.68136 111.163 2.65246 111.423 2.625 111.68L2.54688 112.43C2.53838 112.509 2.54313 112.601 2.58594 112.711L2.88281 113.461C3.01026 113.787 3.09492 114.126 3.13281 114.469L3.17188 114.844L3.21875 115.219C3.25625 115.561 3.23813 115.903 3.17969 116.242L3.05469 116.992C3.02713 117.152 3.02266 117.312 3.03906 117.469L3.11719 118.219C3.16099 118.634 3.09902 119.043 2.95312 119.43L2.67188 120.18C2.61042 120.343 2.58015 120.496 2.57031 120.641L2.54688 121.016L2.51562 121.391C2.50036 121.619 2.49279 121.85 2.49219 122.078V122.828C2.49209 122.865 2.49995 122.937 2.57031 123.055L2.80469 123.43L3.03125 123.805C3.25453 124.174 3.39501 124.588 3.41406 125.031L3.44531 125.781C3.4604 126.141 3.41901 126.503 3.32031 126.852L3.10156 127.602C3.05753 127.758 3.04474 127.909 3.04688 128.055V128.43L3.05469 128.805C3.06052 129.145 3.02051 129.488 2.9375 129.82L2.75 130.57C2.69958 130.773 2.66776 130.973 2.64844 131.172L2.57031 131.922H2.57812C2.58235 131.934 2.59408 131.963 2.625 132.008L3.14062 132.758C3.42073 133.167 3.58324 133.663 3.51562 134.203L3.42188 134.953C3.38428 135.252 3.32453 135.549 3.24219 135.844L3.13281 136.219L3.03125 136.594C3.00595 136.684 3.00383 136.767 3.02344 136.852L3.19531 137.602C3.25611 137.864 3.31721 138.128 3.36719 138.391L3.50781 139.141C3.59358 139.594 3.5401 140.043 3.36719 140.461L3.05469 141.211C2.96724 141.422 2.89228 141.63 2.83594 141.836L2.63281 142.586C2.60528 142.687 2.59895 142.781 2.61719 142.875L2.77344 143.625C2.81629 143.838 2.86864 144.057 2.9375 144.273L3.0625 144.648L3.17969 145.023C3.27858 145.334 3.34137 145.65 3.375 145.969L3.41406 146.336L3.46094 146.711C3.50106 147.091 3.46163 147.468 3.35938 147.836L3.25 148.219L3.14844 148.602C3.116 148.72 3.10809 148.831 3.125 148.945L3.17969 149.336L3.24219 149.719C3.25095 149.777 3.26868 149.819 3.3125 149.867L3.84375 150.445C3.98783 150.603 4.13731 150.745 4.28906 150.867L4.57812 151.102L4.875 151.336C5.17208 151.575 5.41293 151.872 5.60156 152.203L5.79688 152.547L5.96094 152.844L6.29688 152.922L6.67969 153.008C6.91026 153.059 7.13169 153.101 7.34375 153.133L8.0625 153.242C8.49716 153.308 8.88383 153.498 9.21875 153.758L9.55469 154.016L9.89062 154.281C9.98435 154.354 10.0513 154.363 10.0938 154.367L10.4766 154.406L10.8516 154.445C11.0715 154.467 11.2916 154.477 11.5078 154.477H12.2578C12.3655 154.476 12.4866 154.448 12.625 154.391L13.375 154.078C13.7173 153.936 14.0782 153.853 14.4453 153.828L14.8203 153.797L15.1953 153.773C15.5054 153.753 15.8158 153.76 16.125 153.797L16.875 153.891C17.018 153.908 17.1653 153.897 17.3125 153.867L17.6875 153.789L18.0625 153.719C18.6069 153.609 19.117 153.741 19.5469 154.016L19.9219 154.258L20.2109 154.438L20.4766 154.328L20.8516 154.164L21.2422 154.039C21.6332 153.955 22.0336 153.995 22.4141 154.164L22.7891 154.328L23.1641 154.5C23.2771 154.55 23.3672 154.56 23.4375 154.555L23.8125 154.523L24.1875 154.5C24.3924 154.484 24.5975 154.449 24.8047 154.406L25.5547 154.25C25.8373 154.191 26.122 154.154 26.4062 154.125L27.1562 154.047C27.3712 154.025 27.5882 153.99 27.8047 153.945L28.5547 153.789C28.8295 153.732 29.107 153.69 29.3828 153.656L30.1328 153.562C30.539 153.512 30.9431 153.557 31.3281 153.688L31.7031 153.812L32.0781 153.945C32.2691 154.01 32.4585 154.054 32.6406 154.078L33.0156 154.125L33.3906 154.18C33.4961 154.194 33.607 154.184 33.7266 154.148L34.1016 154.039L34.4766 153.922C34.8034 153.825 35.1394 153.769 35.4766 153.758L35.8516 153.75L36.2266 153.734C36.4316 153.727 36.6371 153.706 36.8438 153.672L37.5938 153.547C37.9733 153.484 38.3595 153.5 38.7344 153.586L39.4844 153.758C39.8028 153.831 40.1162 153.94 40.4219 154.078L40.7969 154.242L41.0469 154.359L41.3438 154.172L41.7188 153.93C41.9677 153.77 42.2718 153.658 42.6094 153.648C42.7769 153.644 42.9359 153.669 43.0859 153.711L43.5156 153.891L44.2656 154.328C44.3083 154.353 44.3342 154.357 44.3438 154.359L44.3594 154.367L44.7344 154.305L45.1094 154.25C45.4776 154.194 45.8461 154.205 46.2109 154.281L46.9609 154.438C46.9835 154.442 47.0174 154.445 47.0859 154.414L47.4609 154.242L47.8359 154.062C48.2187 153.886 48.6341 153.797 49.0625 153.82L49.8125 153.867C50.1419 153.886 50.4687 153.945 50.7891 154.039L51.5391 154.258C51.6012 154.276 51.6548 154.277 51.7188 154.258L52.4688 154.023C52.7814 153.928 53.101 153.865 53.4219 153.836L54.1719 153.773C54.6513 153.731 55.1003 153.852 55.5 154.078L55.875 154.289L56.2188 154.484L56.5391 154.367L56.9141 154.234C57.2919 154.097 57.6909 154.036 58.0938 154.07L58.4688 154.109L58.8438 154.141C58.9392 154.149 59.0437 154.137 59.1641 154.094L59.5391 153.953L59.9141 153.82C60.3502 153.661 60.8121 153.63 61.2656 153.75L62.0156 153.953C62.0781 153.97 62.133 153.967 62.2031 153.945L62.9531 153.711C63.399 153.569 63.8661 153.563 64.3125 153.703L64.6875 153.82L65.0625 153.945C65.1759 153.98 65.2777 153.982 65.375 153.969L65.75 153.922L66.125 153.867C66.4766 153.82 66.8298 153.83 67.1797 153.891L67.9297 154.016C68 154.028 68.0772 154.026 68.1719 153.992L68.5469 153.859L68.9219 153.719C69.3263 153.573 69.7512 153.535 70.1797 153.609L70.9297 153.734C71.2902 153.797 71.6387 153.922 71.9688 154.094L72.3438 154.297L72.7188 154.492C72.7432 154.505 72.76 154.506 72.7656 154.508L73.5156 154.32C73.7704 154.257 74.0265 154.193 74.2812 154.133L75.0312 153.961C75.3636 153.883 75.6999 153.848 76.0391 153.859L76.4141 153.867L76.7891 153.883C76.954 153.888 77.1262 153.873 77.2969 153.836L77.6719 153.75L78.0469 153.672C78.3813 153.598 78.7222 153.569 79.0625 153.586L79.4375 153.602L79.8125 153.625C80.054 153.637 80.2976 153.642 80.5391 153.648L80.9141 153.664L81.2891 153.672C81.6485 153.682 82.0022 153.754 82.3438 153.875L82.7188 154.008L83.0547 154.125L83.4219 153.938L83.7969 153.742C84.2045 153.529 84.6575 153.425 85.1328 153.484L85.8828 153.578C86.1926 153.617 86.5013 153.68 86.8047 153.773L87.5547 154.008C87.7578 154.07 87.9581 154.118 88.1562 154.148L88.9062 154.258C89.0807 154.284 89.2571 154.287 89.4297 154.273L89.8047 154.242L90.1797 154.219C90.5493 154.189 90.9154 154.222 91.2734 154.32L91.6484 154.422L91.9219 154.5L92.2812 154.227L92.6562 153.945L93.0781 153.703C93.2364 153.64 93.4119 153.6 93.6016 153.594C93.792 153.588 93.9697 153.618 94.1328 153.672L94.5781 153.898L94.9531 154.156L95.25 154.359L95.5078 154.266L95.8828 154.117C96.321 153.94 96.7912 153.897 97.2578 154.016L97.6328 154.109L98.0078 154.211C98.1244 154.24 98.2344 154.244 98.3438 154.227L99.0938 154.102C99.3264 154.063 99.5637 154.02 99.7969 153.969L100.172 153.883L100.547 153.805C100.922 153.723 101.302 153.708 101.68 153.773L102.055 153.844L102.43 153.906C102.678 153.95 102.931 153.997 103.18 154.039L103.93 154.164C103.991 154.174 104.058 154.168 104.148 154.133L104.523 153.992L104.898 153.844C105.23 153.716 105.572 153.632 105.922 153.602L106.672 153.539C107.043 153.507 107.414 153.543 107.773 153.641L108.523 153.844C108.736 153.901 108.947 153.945 109.156 153.977L109.906 154.086C110.15 154.123 110.397 154.163 110.641 154.195L111.391 154.289C111.536 154.308 111.681 154.308 111.828 154.281L112.578 154.141C112.764 154.107 112.961 154.059 113.156 153.984L113.531 153.844L113.906 153.695L114.312 153.594C114.587 153.555 114.858 153.582 115.117 153.664L115.5 153.828L116.25 154.25C116.407 154.338 116.542 154.381 116.656 154.398L117.406 154.508C117.612 154.539 117.819 154.559 118.023 154.562L118.773 154.578C118.885 154.58 119.011 154.56 119.148 154.508L119.523 154.359L119.898 154.219C120.236 154.089 120.588 154.008 120.945 153.984L121.695 153.938C121.947 153.921 122.202 153.905 122.453 153.891L123.203 153.844C123.423 153.831 123.647 153.814 123.867 153.781L124.617 153.672L125.008 153.648C125.394 153.671 125.751 153.809 126.062 154.016L126.812 154.516C126.866 154.551 126.899 154.566 126.914 154.57H126.93L127.305 154.539L127.68 154.516C127.861 154.501 128.046 154.467 128.234 154.414L128.984 154.195C129.324 154.099 129.673 154.058 130.023 154.062H130.398L130.773 154.07C130.899 154.072 131.034 154.051 131.18 154L131.93 153.734C132.366 153.582 132.824 153.564 133.273 153.688L133.648 153.789L134.023 153.898C134.265 153.965 134.508 154.025 134.75 154.086L135.5 154.273C135.707 154.325 135.914 154.361 136.117 154.383L136.492 154.43L136.867 154.469C136.977 154.48 137.093 154.468 137.219 154.43L137.594 154.312L137.969 154.203C138.383 154.077 138.81 154.058 139.234 154.156L139.984 154.328C140.06 154.346 140.134 154.346 140.219 154.32L140.969 154.086C141.249 154.001 141.53 153.931 141.812 153.875L142.188 153.805L142.562 153.727C142.9 153.66 143.244 153.638 143.586 153.664L143.961 153.695L144.336 153.719C144.731 153.749 145.108 153.869 145.461 154.047L146.211 154.422C146.327 154.48 146.41 154.495 146.469 154.492L147.219 154.461C147.371 154.454 147.529 154.422 147.695 154.367L148.445 154.117C148.885 153.972 149.343 153.963 149.789 154.094L150.539 154.312C150.712 154.363 150.884 154.393 151.047 154.398L151.797 154.43C151.97 154.436 152.144 154.416 152.32 154.383L153.07 154.242C153.284 154.201 153.502 154.151 153.719 154.086L154.094 153.969L154.469 153.859C154.82 153.753 155.181 153.705 155.547 153.719L155.922 153.727L156.297 153.742C156.54 153.752 156.788 153.761 157.031 153.766L157.781 153.781C157.945 153.784 158.111 153.765 158.281 153.727L159.031 153.555C159.462 153.456 159.903 153.481 160.32 153.617L160.695 153.734L161.07 153.859C161.164 153.889 161.243 153.89 161.32 153.875L162.07 153.734C162.333 153.684 162.596 153.633 162.859 153.594L163.609 153.484L164.016 153.469C164.406 153.494 164.768 153.639 165.078 153.852L165.828 154.367C165.884 154.405 165.923 154.423 165.945 154.43C165.962 154.435 165.972 154.437 165.977 154.438L166.352 154.422L166.727 154.414C166.847 154.411 166.985 154.381 167.133 154.32L167.508 154.172L167.883 154.016C168.178 153.895 168.479 153.798 168.781 153.727L169.156 153.641L169.531 153.547C169.913 153.457 170.302 153.445 170.688 153.516L171.438 153.656C171.651 153.695 171.866 153.72 172.078 153.734L172.453 153.758L172.828 153.789C173.017 153.802 173.209 153.795 173.398 153.773L173.773 153.734L174.148 153.688C174.479 153.65 174.81 153.658 175.141 153.703L175.516 153.75L175.891 153.805C176.158 153.841 176.428 153.879 176.695 153.93L177.07 154.008L177.445 154.078C177.626 154.113 177.807 154.122 177.984 154.117L178.734 154.102C178.99 154.095 179.245 154.087 179.5 154.086H180.25C180.512 154.084 180.777 154.086 181.039 154.094L181.414 154.109L181.789 154.117C181.892 154.12 182.008 154.107 182.141 154.055L182.891 153.758C183.328 153.585 183.795 153.546 184.258 153.664L185.008 153.852C185.215 153.904 185.421 153.945 185.625 153.969L186 154.016L186.375 154.055C186.609 154.082 186.844 154.108 187.078 154.125L187.453 154.156L187.828 154.18C187.989 154.191 188.155 154.18 188.32 154.148L189.07 154.008C189.459 153.933 189.85 153.942 190.234 154.031L190.609 154.117L190.984 154.211C191.196 154.26 191.408 154.289 191.617 154.312L191.992 154.359L192.367 154.398C192.382 154.4 192.429 154.404 192.523 154.352L193.273 153.93L193.672 153.766C193.947 153.685 194.233 153.668 194.516 153.727L194.938 153.875L195.688 154.234C195.819 154.297 195.928 154.312 196.016 154.312L196.391 154.32H196.766C196.99 154.322 197.213 154.312 197.438 154.297L198.188 154.25C198.535 154.226 198.886 154.253 199.227 154.328L199.602 154.406L199.977 154.492C200.113 154.522 200.244 154.525 200.375 154.508L201.125 154.414C201.454 154.371 201.787 154.362 202.117 154.398L202.492 154.445L202.867 154.484C203.086 154.509 203.306 154.52 203.523 154.523L204.273 154.539C204.327 154.54 204.412 154.526 204.531 154.461L205.281 154.055L205.656 153.891C206.038 153.772 206.447 153.774 206.852 153.922L207.227 154.062L207.602 154.195C207.664 154.218 207.706 154.222 207.75 154.211L208.5 154.008C208.772 153.936 209.048 153.879 209.32 153.828L210.07 153.688C210.367 153.632 210.669 153.597 210.969 153.586L211.719 153.555C212.034 153.543 212.351 153.561 212.664 153.609L213.039 153.672L213.414 153.727C213.687 153.769 213.962 153.82 214.234 153.883L214.609 153.977L214.984 154.062C215.047 154.077 215.109 154.073 215.188 154.047L215.562 153.922L215.938 153.789C216.398 153.633 216.877 153.638 217.336 153.797L217.711 153.922L218.086 154.055C218.312 154.133 218.541 154.199 218.766 154.258L219.141 154.359L219.477 154.445C219.482 154.443 219.496 154.444 219.508 154.438L219.883 154.219L220.258 154.008C220.628 153.792 221.037 153.655 221.477 153.641L221.852 153.625L222.227 153.617C222.537 153.607 222.848 153.618 223.156 153.664L223.531 153.727L223.906 153.781C224.097 153.81 224.287 153.818 224.477 153.812L224.852 153.805L225.227 153.789C225.42 153.783 225.616 153.765 225.812 153.727L226.188 153.648L226.562 153.578L226.992 153.539C227.407 153.556 227.785 153.72 228.102 153.953L228.477 154.227L228.773 154.438L229 154.352L229.375 154.195C229.665 154.075 229.962 153.976 230.258 153.898L230.633 153.797L231.008 153.703C231.389 153.603 231.782 153.577 232.172 153.641L232.922 153.766C233.174 153.806 233.428 153.848 233.68 153.891L234.43 154.016C234.563 154.038 234.694 154.04 234.828 154.016L235.203 153.945L235.578 153.883C236.07 153.793 236.545 153.881 236.969 154.102L237.719 154.492C237.826 154.548 237.894 154.55 237.938 154.547L238.688 154.5C238.797 154.492 238.923 154.455 239.07 154.383L239.82 154.023C240.262 153.808 240.754 153.738 241.25 153.859L241.625 153.945L243.5 154.414C243.675 154.458 243.847 154.483 244.016 154.484H244.766C244.846 154.485 244.944 154.467 245.07 154.406L245.82 154.047C246.203 153.862 246.621 153.761 247.055 153.781L247.43 153.805L247.805 153.82C248.067 153.833 248.332 153.852 248.594 153.875L249.344 153.938C249.474 153.949 249.609 153.936 249.75 153.898L250.5 153.695L250.898 153.633C251.289 153.612 251.663 153.715 252 153.906L252.375 154.125L252.734 154.328L253.07 154.219L253.445 154.094C253.693 154.011 253.94 153.928 254.188 153.844L254.938 153.594L255.344 153.5C255.745 153.456 256.138 153.546 256.492 153.742L256.867 153.953L257.242 154.156C257.397 154.242 257.53 154.282 257.641 154.297L258.016 154.352L258.391 154.398C258.511 154.414 258.636 154.408 258.766 154.375L259.141 154.281L259.516 154.18C259.73 154.125 259.946 154.056 260.164 153.977L260.539 153.844L260.914 153.703C261.292 153.565 261.69 153.506 262.094 153.539L262.844 153.602C263.16 153.628 263.472 153.693 263.781 153.781L264.156 153.883L264.531 153.992C264.7 154.041 264.865 154.068 265.023 154.07H265.398L265.773 154.078C266.113 154.083 266.451 154.134 266.781 154.227L267.156 154.336L267.469 154.414L267.844 154.188L268.219 153.945C268.608 153.697 269.058 153.544 269.547 153.562L270.297 153.594C270.71 153.61 271.105 153.727 271.469 153.914L271.844 154.102L272.219 154.297C272.375 154.377 272.512 154.422 272.633 154.438L273.383 154.531C273.48 154.544 273.587 154.538 273.703 154.5L274.078 154.375L274.453 154.258C274.828 154.136 275.216 154.085 275.609 154.125L276.359 154.203C276.647 154.233 276.934 154.282 277.219 154.344L277.594 154.422L277.969 154.508C278.109 154.538 278.248 154.541 278.383 154.523L279.133 154.43C279.447 154.389 279.763 154.376 280.078 154.398L280.453 154.422L280.828 154.453L280.938 154.398L281.305 154.148L281.672 153.906C282.015 153.674 282.406 153.541 282.82 153.555L283.242 153.617L283.633 153.719L283.883 153.781L284.062 153.617L284.359 153.352C284.608 153.123 284.875 152.922 285.164 152.766L285.477 152.602L285.797 152.43C286.032 152.302 286.279 152.177 286.539 152.062L286.898 151.906L287.25 151.75C287.273 151.74 287.285 151.73 287.289 151.727C287.292 151.724 287.303 151.72 287.312 151.703L287.484 151.367L287.664 151.031C287.765 150.842 287.856 150.651 287.93 150.461L288.195 149.773C288.301 149.5 288.424 149.23 288.57 148.969L288.945 148.297C288.999 148.201 289.031 148.105 289.039 148L289.062 147.617L289.094 147.242C289.107 147.059 289.103 146.875 289.078 146.695L288.969 145.945C288.934 145.691 288.905 145.435 288.875 145.18L288.781 144.43C288.75 144.17 288.726 143.908 288.703 143.648L288.672 143.273L288.633 142.898C288.587 142.384 288.745 141.909 289.008 141.508L289.25 141.133L289.453 140.82L289.352 140.555L289.203 140.18C289.1 139.921 289.001 139.657 288.906 139.398L288.773 139.023L288.633 138.648C288.475 138.214 288.451 137.756 288.57 137.305L288.672 136.93L288.766 136.555C288.81 136.388 288.829 136.221 288.828 136.062V135.312C288.826 135.065 288.823 134.818 288.82 134.57L288.812 134.195V133.82C288.81 133.524 288.828 133.225 288.867 132.93L288.961 132.18C288.976 132.064 288.971 131.946 288.938 131.82L288.734 131.07C288.616 130.629 288.639 130.174 288.781 129.742L288.898 129.367L289.023 128.992C289.046 128.923 289.047 128.871 289.031 128.812L288.938 128.438L288.836 128.062C288.703 127.558 288.776 127.058 289 126.609L289.375 125.859C289.374 125.867 289.374 125.876 289.375 125.883V125.859C289.38 125.85 289.383 125.844 289.383 125.844C289.383 125.845 289.368 125.851 289.367 125.859L289.25 125.516L289.117 125.141C289.023 124.873 288.937 124.604 288.859 124.336L288.641 123.586C288.514 123.145 288.526 122.694 288.664 122.258L288.898 121.508C288.924 121.427 288.923 121.359 288.906 121.289L288.734 120.539C288.611 120.013 288.71 119.503 288.961 119.062L289.18 118.688L289.391 118.312C289.412 118.276 289.415 118.261 289.414 118.266L289.328 117.906L289.242 117.531C289.163 117.189 289.133 116.841 289.156 116.492L289.203 115.742C289.206 115.702 289.204 115.636 289.148 115.531L288.742 114.781C288.6 114.515 288.518 114.2 288.539 113.867C288.56 113.538 288.685 113.249 288.844 113.008L289.086 112.633L289.281 112.336L289.172 112.086L289 111.711C288.862 111.399 288.758 111.078 288.695 110.75L288.555 110C288.455 109.479 288.57 108.982 288.82 108.555L289.039 108.18L289.266 107.805H289.273L289.281 107.82L289.273 107.812L289.266 107.789V107.781L289.18 107.445L289.078 107.07C288.95 106.596 288.986 106.116 289.172 105.672L289.336 105.297L289.461 104.984L289.289 104.648L289.094 104.273C288.919 103.939 288.794 103.586 288.734 103.219L288.68 102.844L288.617 102.469C288.531 101.943 288.662 101.451 288.922 101.031L289.156 100.656L289.336 100.359L289.219 100.102L289.047 99.7266C288.891 99.3875 288.782 99.0314 288.742 98.6641L288.664 97.9141C288.61 97.4085 288.75 96.9368 289 96.5312L289.227 96.1562L289.328 95.9922L289.172 95.7891L288.891 95.4141C288.712 95.1786 288.566 94.8803 288.531 94.5312C288.496 94.1755 288.587 93.8477 288.742 93.5703L288.945 93.1953L289.156 92.8203C289.227 92.6942 289.248 92.6035 289.25 92.5391L289.266 91.7891C289.268 91.6946 289.251 91.5829 289.195 91.4531L289.031 91.0781L288.875 90.7031C288.699 90.2923 288.63 89.8497 288.703 89.3984L288.828 88.6484C288.886 88.2953 288.998 87.9531 289.156 87.625L289.336 87.25L289.5 86.8906L289.367 86.5625L289.211 86.1875C289.054 85.8034 288.988 85.395 289.023 84.9766L289.086 84.2266C289.091 84.1625 289.081 84.0779 289.031 83.9688L288.867 83.5938L288.695 83.2188C288.472 82.7247 288.458 82.1877 288.664 81.6797L288.812 81.3047L288.969 80.9297C289.016 80.8112 289.029 80.7113 289.023 80.625L288.992 80.25L288.969 79.875C288.943 79.5016 288.987 79.1325 289.094 78.7734L289.211 78.3984L289.32 78.0234C289.336 77.9724 289.331 77.9319 289.312 77.875L289.188 77.5L289.07 77.125C288.981 76.8557 288.9 76.5829 288.828 76.3125L288.625 75.5625C288.528 75.1964 288.496 74.8215 288.539 74.4453L288.586 74.0703L288.625 73.6953C288.654 73.4429 288.687 73.1899 288.719 72.9375L288.812 72.1875C288.832 72.0327 288.83 71.875 288.805 71.7188L288.68 70.9688C288.616 70.575 288.646 70.181 288.75 69.7969L288.953 69.0469C288.984 68.9313 288.986 68.8247 288.969 68.7188L288.844 67.9688C288.805 67.7301 288.766 67.4889 288.719 67.25L288.648 66.875L288.57 66.5C288.491 66.0943 288.506 65.6859 288.617 65.2891L288.836 64.5391C288.887 64.3592 288.914 64.1794 288.922 64.0078L288.953 63.2578C288.97 62.9127 289.038 62.5734 289.148 62.2422L289.398 61.4922C289.451 61.3358 289.475 61.187 289.477 61.0469L289.484 60.6719V60.2969C289.485 60.2533 289.474 60.1796 289.406 60.0625L288.969 59.3125C288.717 58.8786 288.608 58.376 288.719 57.8516L288.875 57.1016C288.934 56.8224 289.009 56.5428 289.094 56.2656L289.203 55.8906L289.32 55.5156C289.371 55.3491 289.395 55.1859 289.398 55.0312L289.414 54.2812C289.421 54.0032 289.446 53.7229 289.477 53.4453L289.555 52.6953C289.576 52.4999 289.581 52.304 289.57 52.1094L289.555 51.7344L289.531 51.3594C289.518 51.1027 289.508 50.8426 289.5 50.5859L289.492 50.2109L289.477 49.8359C289.468 49.56 289.471 49.2836 289.484 49.0078L289.508 48.6328L289.523 48.2578C289.53 48.12 289.518 47.9775 289.477 47.8281L289.367 47.4531L289.266 47.0781C289.181 46.7741 289.124 46.466 289.094 46.1562L289.016 45.4062C288.983 45.0629 289 44.715 289.062 44.375L289.203 43.625C289.231 43.4747 289.236 43.3272 289.219 43.1797L289.125 42.4297C289.098 42.2094 289.062 41.9871 289.016 41.7656L288.859 41.0156C288.798 40.7209 288.753 40.4225 288.734 40.125L288.688 39.375C288.669 39.0897 288.667 38.801 288.68 38.5156L288.711 37.7656C288.719 37.5916 288.712 37.4118 288.68 37.2344L288.539 36.4844C288.481 36.1615 288.461 35.8341 288.477 35.5078L288.492 35.1328L288.516 34.7578C288.53 34.4626 288.563 34.1681 288.617 33.875L288.758 33.125C288.796 32.9209 288.82 32.7174 288.828 32.5156L288.859 31.7656C288.866 31.6138 288.852 31.4569 288.812 31.2969L288.625 30.5469C288.52 30.1219 288.532 29.6918 288.656 29.2734L288.875 28.5234C288.95 28.2707 289.031 28.0183 289.109 27.7656L289.344 27.0156C289.37 26.9303 289.368 26.8557 289.352 26.7812L289.18 26.0312C289.084 25.608 289.1 25.1787 289.227 24.7656L289.344 24.3906L289.445 24.0469V24.0391L289.039 23.2891C288.807 22.8625 288.71 22.3779 288.805 21.875L288.945 21.125C288.999 20.8435 289.067 20.5607 289.148 20.2812L289.258 19.9062L289.352 19.5547ZM219.516 154.461L219.5 154.453H219.484L219.516 154.461Z" fill="#BF6A02"/>
</svg>
